<svg id="Layer_1" xmlns="http://www.w3.org/2000/svg" xmlns:xlink="http://www.w3.org/1999/xlink" viewBox="0 0 440 430">

  <style>
    .st0{fill:#d4e2ff}
    .st1{fill:#558cff}
    .st2{fill:#fff}
    .st6{fill:#ebebeb}
    .st9{fill:#201712}
    .st10{fill:#dedede}
    .st11{fill:#bfbfbf}
    .st13{fill:#f2f2f2}
    .st16{fill:#2c4be5}
    .st17{fill:#fde356}
    .st18{fill:#fe3d5f}
    .st19{font-family:&apos;MyriadPro-Regular&apos;}
    .st20{font size:6.0958px}
    .st21{fill:#ccc}
    .st23{fill:#7fa9ff}
    .st25{fill:#999}
    .st27{fill:#fd7458}
    .st30{fill:#dd2de2}
    .st31{fill:#f973f9}
    .st33{opacity:.4}
    .st34{opacity:.3}
    .st35{opacity:.2}
    .st38{fill:#aac5ff}
    @keyframes float {
    	0% {
      		transform: translatey(0px);
          opacity: 1;
        	}
    	50% {
      		transform: translatey(-60px);
          opacity: 0;
        	}
    	100% {
      		transform: translatey(0px);
          opacity: 0;
        	}
    }
    @keyframes float-right-left
    {
        0%
        {
            transform: translateX(0px);
        }
        50%
        {
            transform: translateX(80px);
        }
        100%
        {
            transform: translateX(0px);
        }
    }
    .heart {
      -webkit-animation: float 2s alternate infinite, float 5s ease-in-out infinite;
      <!-- -webkit-animation: float 4s linear forwards; -->
      <!-- -moz-animation: float 2s alternate-reverse infinite, float 5s ease-in-out infinite;
      animation: float 2s alternate-reverse infinite, float 5s ease-in-out infinite; -->
      <!-- animation: float 4s linear forwards; -->

      <!-- left: 50%;
      top: 80%; -->

      <!-- -webkit-transform: scale(0.4);
      -moz-transform: scale(0.4);
      transform: scale(0.4); -->
    }
    .face {
      -webkit-animation: float 20s alternate infinite, float 7s ease-in-out infinite;
      <!-- -webkit-animation: float 4s linear forwards; -->
      <!-- -moz-animation: float 20s alternate infinite, float 7s ease-in-out infinite; -->
      <!-- animation: float 20s alternate infinite, float 7s ease-in-out infinite; -->
      <!-- animation: float 4s linear forwards; -->

      <!-- left: 50%;
      top: 80%; -->

      <!-- -webkit-transform: scale(0.4);
      -moz-transform: scale(0.4);
      transform: scale(0.4); -->
    }
    .srt {
      -webkit-animation: float 12s alternate infinite, float 20s ease-in-out infinite;
    }
    .srt8 {
      -webkit-animation: float 10s alternate infinite, float 20s ease-in-out infinite;
    }
    .srt4 {
      -webkit-animation: float 14s alternate infinite, float 8s ease-in-out infinite;
    }
    .srt10 {
      -webkit-animation: float 10s alternate infinite, float 20s ease-in-out infinite;
    }
    .floating-heart {
      -webkit-animation: float 7s alternate infinite, float-right-left 4s alternate infinite, float 8s ease-in-out infinite;
      <!-- will-change: transform; -->
    }
  </style>
  <switch>
    <g>
      <ellipse transform="rotate(-30 392.462 175.257)" class="st0" cx="392.5" cy="175.2" rx="7" ry="12.1"/>

      <path class="st1" d="M388.5 171.9c0-2.5 1.8-3.5 4-2.3 2.2 1.3 4 4.3 4 6.8s-1.8 3.5-4 2.3c-2.2-1.2-4-4.2-4-6.8zM392.5 185.1c1.9 1.1 3.6 1.4 5 1-1.1-2.4-2.9-4.6-5-5.8-2.1-1.2-3.9-1.1-5 .1 1.4 2 3.1 3.7 5 4.7z"/>

      <path class="st2" d="M399.4 105.5c-2.3-1.3-4.2-.3-4.2 2.4 0 2.7 1.9 6 4.2 7.3 2.3 1.3 4.2.2 4.2-2.4.1-2.7-1.8-6-4.2-7.3zm0 8.9c-1.9-1.1-3.5-3.8-3.5-6s1.6-3.1 3.5-2 3.5 3.8 3.5 6-1.5 3.1-3.5 2z"/>

      <path class="st2" d="M399.8 108.2l-.7-.4v.7l.7.4zM399.1 112.4l.7.4v-3.2l-.7-.4zM386.8 99.7l-2.1.9v-2.1c0-.6-.4-1.3-.9-1.6l-6.4-3.7c-.5-.3-.9-.1-.9.5v6.6c0 .6.4 1.3.9 1.6l6.4 3.7c.5.3.9.1.9-.5V103l2.1 3.3c.1.1.2.2.2 0v-6.4c0-.1-.1-.3-.2-.2zM367.1 94.7c-.2-.2-.5-.3-.7-.2l-.8.3s-1.5-1.5-3-4.6c-1.5-3.1-1.7-5-1.7-5l.9-.2c.2-.1.3-.3.3-.6l-.2-2.5c0-.3-.2-.6-.4-.7l-2.3-1.5c-.2-.1-.3 0-.3.2-.1 3.3.8 7.1 2.7 10.8 1.8 3.7 4.4 7 7.3 9.2.2.1.3.1.4-.1l.4-2.4c0-.2-.1-.6-.3-.8l-2.3-1.9z"/>

      <linearGradient id="SVGID_1_" gradientUnits="userSpaceOnUse" x1="214.653" y1="183.865" x2="257.05" y2="322.116">
        <stop offset="0" stop-color="#fff"/>
        <stop offset=".075" stop-color="#d1d1d1" stop-opacity=".925"/>
        <stop offset=".166" stop-color="#a1a1a1" stop-opacity=".834"/>
        <stop offset=".262" stop-color="#767676" stop-opacity=".738"/>
        <stop offset=".361" stop-color="#515151" stop-opacity=".639"/>
        <stop offset=".465" stop-color="#343434" stop-opacity=".535"/>
        <stop offset=".575" stop-color="#1d1d1d" stop-opacity=".425"/>
        <stop offset=".693" stop-color="#0d0d0d" stop-opacity=".307"/>
        <stop offset=".825" stop-color="#030303" stop-opacity=".175"/>
        <stop offset="1" stop-opacity="0"/>
      </linearGradient>

      <path d="M175.1 358.1c-8.1 0-15.7-1.8-21.4-5.1l-78-44.8c-5.5-3.1-8.5-7.3-8.5-11.7 0-4.5 3.1-8.7 8.7-12l203.8-117.6c5.7-3.3 13.3-5.1 21.4-5.1s15.7 1.8 21.4 5.1l77.8 44.9c5.5 3.2 8.6 7.4 8.6 11.8s-3 8.6-8.6 11.8L196.4 353c-5.7 3.3-13.2 5.1-21.3 5.1z" fill="url(#SVGID_1_)"/>

      <linearGradient id="SVGID_2_" gradientUnits="userSpaceOnUse" x1="261.649" y1="363.189" x2="207.577" y2="127.24">
        <stop offset="0" stop-color="#fff" stop-opacity="0"/>
        <stop offset=".048" stop-color="#fff"/>
        <stop offset=".189" stop-color="#bababa" stop-opacity=".66"/>
        <stop offset=".317" stop-color="#828282" stop-opacity=".351"/>
        <stop offset=".411" stop-color="#5f5f5f" stop-opacity=".123"/>
        <stop offset=".463" stop-color="#525252" stop-opacity="0"/>
        <stop offset=".51" stop-color="#454545" stop-opacity="0"/>
        <stop offset=".638" stop-color="#272727" stop-opacity="0"/>
        <stop offset=".765" stop-color="#111" stop-opacity="0"/>
        <stop offset=".887" stop-color="#040404" stop-opacity="0"/>
        <stop offset="1" stop-opacity="0"/>
      </linearGradient>

      <path d="M175.1 358.1c-8.1 0-15.7-1.8-21.4-5.1l-78-44.8c-5.5-3.1-8.5-7.3-8.5-11.7 0-4.5 3.1-8.7 8.7-12l203.8-117.6c5.7-3.3 13.3-5.1 21.4-5.1s15.7 1.8 21.4 5.1l77.8 44.9c5.5 3.2 8.6 7.4 8.6 11.8s-3 8.6-8.6 11.8L196.4 353c-5.7 3.3-13.2 5.1-21.3 5.1z" opacity=".8" fill="url(#SVGID_2_)"/>

      <path d="M153.2 389.7l-78-44.8c-12.1-7-11.8-18.3.3-25.3L279.2 202c12.1-7 31.6-7 43.7 0l77.8 44.9c12.1 7 12.1 18.3 0 25.2L196.9 389.7c-12.1 7-31.6 7-43.7 0z" opacity=".4" fill="gray"/>

      <path class="st6" d="M154.6 353.2l.1 8 4.2 2.6c10.4 6 25.4 4.4 37.6-1.6l10.8-6.2c-2.2-1.6-4.4-3-6.5-4.4-13.9-8.5-33.9-8.1-46.2 1.6zM75.3 315.5l3.5 1.5-4.4-32.3c-11.7 5.8-11.1 23.8.9 30.8zM400.2 222.9v21.7l.5-.3c7.3-4.2 9.1-8.2 9-21.7l-9.5.3z"/>

      <path class="st2" d="M153.2 353.8l-78-44.8c-12.1-7-11.8-18.3.3-25.3L279.2 166c12.1-7 31.6-7 43.7 0l77.8 44.9c12.1 7 12.1 18.3 0 25.2L196.9 353.8c-12.1 7-31.6 7-43.7 0z"/>

      <path fill="#adcce3" d="M197.5 346L89.4 283.6l191-110.3 108.2 62.4z"/>

      <ellipse cx="129.7" cy="322.7" rx="11.7" ry="6.7" fill="#fff" stroke="gray" stroke-width=".943" stroke-miterlimit="10"/>

      <ellipse class="st9" cx="326.5" cy="185" rx="2.3" ry="1.3"/>

      <path class="st9" d="M356 203.2l-19.7-11.4c-.5-.3-.5-.8 0-1.1.5-.3 1.3-.3 1.8 0l19.7 11.4c.5.3.5.8 0 1.1-.4.3-1.2.3-1.8 0zM355.7 193.6c.6-.4.6-1 0-1.3-.6-.4-1.7-.4-2.3 0-.6.4-.6 1 0 1.3.6.4 1.6.4 2.3 0z"/>

      <path d="M311.1 148.9c.1 0 .1-.1 0 0 0-.1 0 0 0 0z"/>

      <path class="st10" d="M154.7 354.6l-79.4-45.5v6.3l79.5 45.9z"/>

      <path d="M5.1 175.6s0-.1 0 0c-.1-.1-.1 0 0 0z"/>

      <path class="st10" d="M196.5 362.3V354l206.3-119.4v8.5z"/>

      <path class="st2" d="M196.5 353.9v8.3l5.5-3.1.1-8.4zM396.8 238v8.5l6.1-3.8v-8.5z"/>

      <path class="st11" d="M363.5 264c-.7 0-1.4-.5-1.4-1.6 0-1.2.8-2.6 1.9-3.2l13.9-8c.3-.2.6-.3 1-.3.7 0 1.4.5 1.4 1.6 0 1.2-.8 2.6-1.9 3.2l-13.9 8c-.4.2-.7.3-1 .3z"/>

      <path d="M380.1 251.8c-.1 0-.1 0 0 0-.1 0-.1 0 0 0l-.1-.1c-.3-.2-.7-.2-1.2.1l-13.9 8c-.9.5-1.6 1.8-1.6 2.8 0 .5.2.9.5 1.1.3.2.7.2 1.2-.1l13.9-8c.9-.5 1.6-1.8 1.6-2.8.1-.4-.1-.8-.4-1z" fill="#dfdfdf"/>

      <path class="st13" d="M379 255.7l-13.9 8c-.9.5-1.6.1-1.6-.9s.7-2.3 1.6-2.8l13.9-8c.9-.5 1.6-.1 1.6.9 0 1.1-.7 2.3-1.6 2.8z"/>

      <path d="M286.2 308l-24.3 14c-.8.5-1.4.1-1.4-.8s.6-2 1.4-2.4l24.3-14c.8-.5 1.4-.1 1.4.8.1.9-.6 2-1.4 2.4z" fill="#e5e5e5"/>

      <path d="M262.5 320.1c0 .3-.2.6-.4.7-.2.1-.4 0-.4-.2 0-.3.2-.6.4-.7.2-.1.4 0 .4.2z" fill="gray"/>

      <path class="st0" d="M197.5 346L89.3 283.6l191.1-110.3 108.1 62.4z"/>

      <path class="st16" d="M381.7 239.7l-108.1-62.5 6.8-3.9 108.1 62.4z"/>

      <path class="st1" d="M381.7 239.7l-108.1-62.5-19.7 11.4L362 251.1z"/>

      <path class="st11" d="M342.3 262.4L234.1 200l-2.1 1.2 108.1 62.5zM316.1 277.6L208 215.1l-2.2 1.3 108.1 62.4zM288.9 293.3l-108.2-62.5-2.1 1.3 108.1 62.4z"/>

      <ellipse class="st17" cx="122.3" cy="292.4" rx="5.9" ry="3.4"/>

      <path class="st9" d="M119.9 290.2c-.2.1-.4.2-.5.3-1.6 1-1.5 2.6.3 3.6s4.6.9 6.2-.1c.2-.1.3-.2.5-.4-.7-.7-1.6-1.3-2.7-1.9-1.3-.6-2.6-1.1-3.8-1.5z"/>

      <path class="st18" d="M123.6 294.7c-.2-.7-.8-1.3-1.8-1.8s-2.3-.9-3.6-.9c-.1.7.4 1.5 1.4 2.1 1.1.5 2.6.7 4 .6z"/>

      <path class="st9" d="M126.7 293l-1.3-1.1v-.1h.2l1.7.4c.1 0 .1.1.1.1 0 .1-.1.1-.2.1l-1.1-.3.9.8c.1 0 0 .1-.1.1h-.2zM121 289.9c-.1 0-.1-.1 0-.1 0-.1.2-.1.2 0l1.5.5-.5-.6c0-.1 0-.1.1-.1s.2 0 .2.1l.8.9v.1h-.2l-2.1-.8z"/>

      <path class="st18" d="M117.3 289.5c2.2-1.3 2.2-3.4 0-4.7-2.3-1.3-5.9-1.3-8.1 0-2.2 1.3-2.2 3.4 0 4.7 2.3 1.3 5.9 1.3 8.1 0z"/>

      <path class="st2" d="M116.8 286.9c-.7-.6-1.9-.5-2.4-.4.1-.3.4-.9-.7-1.4-1.5-.6-3.3.2-3.3 1.6 0 1.3.4 1.8.4 1.8s.9.2 3.2.2c2.4.1 3.9-.9 2.8-1.8z"/>

      <path class="st1" d="M108 284.4c-2.4 1.3-6.1 1.1-8.3-.3-2.2-1.4-2-3.5.4-4.8 2.4-1.3 6.1-1.1 8.3.3 2.2 1.4 2 3.5-.4 4.8z"/>

      <path class="st2" d="M100.5 282c-.3-.2-.3-.5.1-.7l1.4-.7c.4-.2.9-.2 1.2 0 .3.2.3.5-.1.7l-1.4.7c-.4.2-.9.2-1.2 0zM106.2 282.9c.2.1.4 0 .6-.1.2-.1.2-.3 0-.5l-1.1-.7c.1 0 .6-.1.8-.1.2 0 .3-.1.4-.1.2-.1.3-.2.4-.3.1-.2.2-.3-.1-.5-.2-.1-.6-.1-.7.1 0 0-.1.1-.2.1h-.6c-.5 0-1.2.1-1.4.1-.3 0-.4.1-.6.2h-.1l-1.8.9c-.2.1-.2.2 0 .3l1.9 1.2c.2.1.5.1.7 0 .1 0 .1-.1.2-.2.2.1.4 0 .6 0 .1-.1.2-.1.2-.2.2 0 .4 0 .6-.1.2.2.3 0 .2-.1z"/>

      <path class="st13" d="M384 235.4l-7.7-4.5c-.8-.4-2-.4-2.8 0l-.1.1c-.8.4-.8 1.2 0 1.6l7.7 4.5c.8.4 2 .4 2.8 0l.1-.1c.8-.4.8-1.2 0-1.6zm-.3 1.5c-.6.4-1.6.4-2.3 0l-7.7-4.5c-.6-.4-.6-.9 0-1.3l.1-.1c.6-.4 1.6-.4 2.3 0l7.7 4.5c.6.4.6 1-.1 1.4z"/>

      <path class="st13" d="M382.9 235.4l-3.7-2.1-1.7 1 3.7 2.1c.6.4 1.6.5 2 .2.5-.3.3-.8-.3-1.2zM364.4 227.4l.8.5.6-.3-.8-.5zM365.4 228l.9.5 1.4-.8-.9-.5zM366.5 228.7l.9.5 2.2-1.3-.9-.5zM367.5 229.3l1 .6 3-1.8-1-.6-3 1.8zm3.1-1.7l.8.5-2.9 1.6-.8-.5 2.9-1.6zM372.4 227.7l-3.8 2.2 1 .6 3.8-2.2-1-.6zm-2.8 2.7l-.8-.5 3.6-2.1.8.5-3.6 2.1zM361.4 225.2c-.3-.2-.7-.2-1 0-.3.2-.3.4 0 .6.3.2.7.2 1 0 .3-.2.3-.5 0-.6zM362.6 224.5c-.6-.3-1.3-.5-2.1-.5-.1 0-.2.1-.2.1 0 .1.1.1.2.1.7 0 1.3.2 1.8.4.5.3.7.6.7 1 0 0 0 .1.1.1h.1c.1 0 .2-.1.2-.1 0-.4-.3-.8-.8-1.1z"/>

      <path class="st13" d="M360.5 223.1c-.1 0-.2.1-.2.1s.1.1.2.1c2.2 0 4 1 4 2.3 0 0 0 .1.1.1h.1c.1 0 .2-.1.2-.1 0-1.3-2-2.5-4.4-2.5z"/>

      <path class="st13" d="M366.6 225.7c0-.9-.6-1.8-1.8-2.5-1.1-.7-2.7-1-4.3-1h-.1c-.1 0-.2.1-.2.1s0 .1.1.1H360.6c1.5 0 2.9.3 4 1 1.1.6 1.6 1.4 1.6 2.3 0 .1.1.1.2.1s.2-.1.2-.1zM356.2 222.1l-.7-1.6 2.7.4h.2s.1-.1 0-.1l-.8-1.7-.1-.1h-.2l-1.9 1.1-.7-1.5c0-.1-.1-.1-.2-.1s-.2.1-.1.1l.7 1.5-2.6-.4c-.1 0-.2 0-.2.1v.1h.1l2.5.4-2 1.1s-.1.1 0 .1h.1l2.9.5h.2c.1.2.1.1.1.1zm1.2-2.7l.6 1.3-2.3-.4 1.7-.9zm-3.9 2.2l1.7-1 .6 1.3-2.3-.3zM277.7 177.5l.8.5 2.7-1.6-1-.4.4-.3 1 .4.5.3-3.2 1.8.8.5-.4.2-2.1-1.2.5-.2zM283.8 177.3l2.3 1.3-.2.1-4.7 1.2-.5-.3 4.4-1.1-1.7-1 .4-.2zM286.1 179.9l.5.3-.6.4-.5-.3.6-.4zm-2 1.1l.5.3-.6.4-.5-.3.6-.4zM288.5 182c.2.2.3.3.2.5 0 .2-.2.3-.4.4-.4.2-.7.3-1.2.3-.4 0-.9-.2-1.3-.4-.2-.1-.3-.2-.4-.3l-.4-.4.5-.3c.1.1.1.2.3.4.1.1.3.2.4.3.3.2.6.3.9.3.3 0 .5 0 .8-.2.2-.1.3-.3.3-.4 0-.2-.2-.3-.4-.5l-.4-.2.4-.2.4.3c.2.1.5.2.7.2.2 0 .4 0 .6-.1.2-.1.3-.2.2-.4 0-.1-.2-.3-.4-.4-.1-.1-.3-.2-.5-.2-.2-.1-.4-.1-.6-.2l.4-.2c.2.1.4.2.6.2.2.1.4.2.5.2.4.2.6.4.6.6 0 .2-.1.4-.4.6-.2.1-.4.2-.7.2-.1 0-.4 0-.7-.1zM290.7 183.3c-.2-.1-.2-.3-.2-.4 0-.1.1-.3.3-.4.3-.2.6-.2 1-.2s.7.1 1.1.3c.4.2.6.4.6.6s-.1.4-.4.6c-.2.1-.4.2-.7.2-.3 0-.5 0-.8-.1.2.2.3.3.2.5 0 .2-.2.3-.4.4-.3.2-.7.3-1.1.3-.4 0-.8-.1-1.2-.4-.4-.2-.6-.5-.6-.7 0-.2.1-.4.5-.6.2-.1.5-.2.8-.2.3-.1.6 0 .9.1zm.3.4c-.2-.1-.5-.2-.7-.2-.3 0-.5.1-.7.2-.2.1-.3.3-.3.4 0 .1.1.3.4.4.2.1.5.2.7.2.3 0 .5-.1.7-.2.2-.1.3-.3.3-.4-.1-.2-.2-.3-.4-.4zm.3-1c-.2.1-.3.2-.3.4 0 .1.1.3.3.4.2.1.4.2.6.2.2 0 .4 0 .6-.1.2-.1.3-.2.3-.4 0-.1-.1-.3-.3-.4-.2-.1-.4-.2-.6-.2-.2 0-.4 0-.6.1z"/>

      <ellipse class="st2" cx="274.1" cy="189.4" rx="3.9" ry="2.3"/>

      <path class="st2" d="M283.7 189.5l-1.6-.9c.7-.5.7-1.2-.1-1.7l-3.6-2.1c-.8-.5-2-.5-2.9-.1l-1.6-.9c-.8-.5-2.1-.5-2.9 0l-6.5 3.8c-.8.5-.8 1.2 0 1.7l9.8 5.6c.8.5 2.1.5 2.9 0l6.5-3.8c.8-.3.8-1.1 0-1.6zm-12.9 1.8c-1.8-1-1.8-2.7 0-3.8 1.8-1 4.7-1 6.5 0 1.8 1 1.8 2.7 0 3.8-1.7 1.1-4.7 1.1-6.5 0zm9.8-1.2c-.2-.1-.2-.4 0-.5.2-.1.6-.1.9 0 .2.1.2.4 0 .5-.2.1-.6.1-.9 0z"/>

      <path class="st13" d="M297.5 197c0-1.5-2.1-2.7-4.7-2.7s-4.7 1.2-4.7 2.7c0 1.4 2 2.6 4.5 2.7l-.1 3.8c0 .1.2.2.3.2.2 0 .3-.1.3-.2l-.1-3.8c2.5-.1 4.5-1.3 4.5-2.7zm-4.7 2.4c-2.4 0-4.3-1.1-4.3-2.5s1.9-2.5 4.3-2.5 4.3 1.1 4.3 2.5-1.9 2.5-4.3 2.5zM368.5 242.6c-3.7 2.1-9.6 2.1-13.3 0-1.1-.6-1.8-1.3-2.3-2.1-.1-.2-1.9-.1-2.1-.3-.1-.2 1.7-.6 1.6-.8-.3-1.6.6-3.2 2.7-4.5 3.7-2.1 9.6-2.1 13.3 0 3.8 2.1 3.8 5.5.1 7.7z"/>

      <path class="st1" d="M363.1 239.4l1.1-2.1-9.4.8 6.2.3-1.2 2 9.1-.6z"/>

      <path class="st18" d="M374.6 241.2c-1.9 1.1-5 1.1-6.8 0-1.9-1.1-1.9-2.9 0-4s5-1.1 6.8 0c1.9 1.1 1.9 2.9 0 4z"/>

      <text transform="matrix(.866 .5 -.866 .5 368.255 239.48)" class="st13 st19 st20">
        7
      </text>

      <path class="st2" d="M254.4 207.1l-8.2-4.7c-1.2-.7-1.2-1.8 0-2.4l7.7-4.5c1.2-.7 3.1-.7 4.2 0l8.2 4.7c1.2.7 1.2 1.8 0 2.4l-7.7 4.5c-1.2.7-3.1.7-4.2 0z"/>

      <path class="st1" d="M267.2 200.6l-9.8-5.6c-.8-.5-2.1-.5-2.9 0l-9.3 5.4c-.8.5-.8 1.2 0 1.7l9.8 5.6c.8.5 2.1.5 2.9 0l9.3-5.4c.8-.5.8-1.2 0-1.7zm-8.5-2.6l6.5 3.8-.6.4-6.5-3.8.6-.4zm-1.6.8l6.5 3.8-.6.4-6.5-3.8.6-.4zm-.4-2c.6.4.6.9 0 1.3s-1.6.4-2.3 0c-.6-.4-.6-.9 0-1.3.7-.4 1.7-.4 2.3 0zm1 10.7c-.7.4-1.8.4-2.5 0l-9.8-5.6c-.7-.4-.7-1 0-1.4l4.7-2.7 12.2 7.1-4.6 2.6z"/>

      <path class="st21" d="M275.5 212.4c1.4.8 3.6.7 5.4-.3 1.6-.9 1.6-1.9 0-2.8-1.5-.9-3.3-.9-4.9 0-1.7 1-1.9 2.3-.5 3.1zm5.2-3c.8.5 1.9 1.5 0 2.6-1.6 1-3.7 1.1-5 .3-1.3-.8-1.1-1.9.5-2.9 2-1.1 3.7-.5 4.5 0zM280.3 214.8c1 .6 2.5.5 3.7-.2 1.1-.6 1.1-1.3 0-1.9-1.1-.6-2.3-.6-3.4 0s-1.3 1.5-.3 2.1zm3.6-2.1c.5.3 1.3 1 0 1.7-1.1.6-2.4.7-3.3.2-.9-.5-.7-1.3.4-1.9 1.2-.7 2.3-.3 2.9 0zM281 215.7c-.8-.9-2.7-1.8-4.4-1.6-.4-.5-1-1-1.7-1.4-2-1.2-5.2-1.8-7.1-.6-1.7 1 .1 2.2 2.2 3.5 1.8 1 4 2.1 5.8 1.4.1 0 .1-.1.2-.1s.1-.1.2-.1c.1.1.3.2.4.3 1.2.7 2.7 1.4 4 .9.1 0 .1 0 .2-.1.7-.7.8-1.4.2-2.2zm-5.5 1c-1.2.5-2.9.1-5.4-1.3-2-1.2-3.7-2.4-2.2-3.2 1.9-1.1 4.8-.5 6.8.6 1.9 1.1 3 2.7 1 3.9 0-.1-.1 0-.2 0zm4.8.9c-.8.3-2 .1-3.6-.9-.2-.1-.3-.2-.4-.3.9-.7.9-1.5.4-2.3 1.4-.1 3.2.6 4.1 1.6.3.4.8 1.2-.3 1.8-.1.1-.1.1-.2.1zM306.3 227.4l.1-.1c.1-.1.2-.1.3-.2l.6-.4 1.8-2.3-10.3-6-3.9 1.1-.1.1c-.4.2-1.4.8-1.5.9-.3.3-.5.8-.4 1.3 0 .1.1.3.1.4l-5.6 3.2c-.5.3-.5.7 0 1l8 4.6c.5.3 1.2.3 1.7 0l5.6-3.2c.4.1.7.1 1.1.1.6 0 1.2-.1 1.7-.2.3 0 .6-.2.8-.3zm-7.6-8.6l9.9 5.7-1.6 2-11.8-6.8 3.5-.9zm-8.3 9l4.5-2.6 2.7 1.6-4.5 2.6-2.7-1.6zm6.4 3.2c-.3.2-.8.2-1.1 0l-2.4-1.4 4.9-2.8-3.3-1.9-4.9 2.8-2.4-1.4c-.3-.2-.3-.5 0-.7l5.5-3.2c0 .1.1.1.1.1.2.2.4.3.6.5 0 0 .1 0 .1.1.1 0 .2.1.3.1h.1c.1 0 .2.1.3.1.2.1.5.1.7.2.2.3.5.6.9.9.4.2.9.4 1.5.5.2.3.5.6.9.9.4.2.9.4 1.5.5 0 .1.1.2.2.2l.2.2s.1 0 .1.1l.1.1.1.1s.1 0 .1.1c0 0 .1 0 .1.1 0 0 .1 0 .1.1.3.2.6.3 1 .4l-5.3 3.3zm8.4-3.4c-.4.1-.9.2-1.5.2-.3 0-.6 0-.9-.1h-.2c-.6-.1-1.2-.4-1.6-.7l-.1-.1-.1-.1-.2-.2c-.1-.1-.1-.2-.1-.2v-.1h-.1c-.5-.1-1-.3-1.4-.5-.4-.2-.7-.5-.8-.8v-.1h-.1c-.5-.1-1-.3-1.4-.5-.4-.2-.7-.5-.8-.8v-.1h-.1c-.6-.1-1.2-.3-1.6-.6l-.1-.1c-.1 0-.1-.1-.2-.1l-.2-.2v-.1c-.2-.2-.3-.4-.3-.7 0-.4.1-.8.4-1.1.1-.1.7-.4 1.3-.8l11.9 6.8-.3.2c-.1.1-.2.1-.3.2l-.1.1c-.5.2-.7.4-1.1.5zM322.5 240.5c-.1-.7.1-1.2.6-1.7l.9-.8c1.7-1.5 1.5-3.4-.5-4.7l.1-.1c.4-.3.1-.9-.6-1.1-.7-.3-1.7-.2-2.1.1l-.1.1c-1-.2-2.1-.3-3.1-.1-1.8.2-3.3.8-4.3 1.6l-1 .9c-.5.4-1.5.7-2.5.9-1 .2-1.3.3-1.9.8-.7.6-.3 1.1.3 1.5-.4.6.1 1.3 1.1 1.7 1 .4 2.3.4 3.1 0l5.5 2.1c.7.3 2.8 1.1 3.9 0 .6-.4.7-.6.6-1.2zm-1.2-8.1c.2-.2.9-.2 1.4 0 .5.2.8.5.5.8h-.1c-.2-.1-.3-.2-.5-.2-.4-.3-.8-.4-1.3-.6zm-11.6 7c-.8-.3-1.2-.8-1-1.3.3.2.7.3.9.4l2.5 1c-.7.3-1.6.2-2.4-.1zm8.6 2.2l-5.4-2.1-3.1-1.2c-.4-.2-.8-.3-1.1-.5l-.1-.1c-.6-.4-.6-.7-.2-1.1.5-.5.7-.5 1.8-.8 1-.2 2.1-.5 2.6-1l1-.9c.9-.8 2.3-1.3 4-1.5 1.5-.1 3 0 4.3.5.1 0 .2.1.3.1 2.5 1.1 3 3.2 1.2 4.7l-.9.8c-.6.5-.8 1.1-.7 1.9.1.5 0 .7-.5 1.2-.6.6-1.6.6-3.2 0zM338.2 243.2l-.3.2 11.1 6.4.3-.2zM333.4 246l11 6.4.4-.2-11.1-6.4zM328.8 248.6l11.1 6.4.3-.2-11.1-6.4z"/>

      <path fill="#c0d7ff" d="M344.2 236l-62.7-36.2-.2.1 62.7 36.2z"/>

      <path class="st2" d="M239.2 219.3c-4.7 2.7-12.3 2.7-16.9 0-4.7-2.7-4.7-7.1 0-9.8 4.7-2.7 12.3-2.7 16.9 0 4.7 2.7 4.7 7.1 0 9.8z"/>

      <path class="st1" d="M227.7 211.6c2.2-1.2 5.7-1.2 7.8 0 2.2 1.2 2.2 3.3 0 4.5-2.2 1.2-5.7 1.2-7.8 0-2.1-1.2-2.1-3.3 0-4.5zM222.3 219.3c1.8 1.1 4.1 1.7 6.5 1.9.4-1.5-.4-3.1-2.4-4.3-2-1.2-4.8-1.6-7.5-1.4.5 1.4 1.6 2.7 3.4 3.8z"/>

      <path class="st2" d="M211.3 235.4c-4.7 2.7-12.3 2.7-16.9 0-4.7-2.7-4.7-7.1 0-9.8 4.7-2.7 12.3-2.7 16.9 0 4.7 2.7 4.7 7.1 0 9.8z"/>

      <ellipse class="st1" cx="203.7" cy="230" rx="5.5" ry="3.2"/>

      <path class="st1" d="M194.4 235.4c1.8 1.1 4.1 1.7 6.5 1.9.4-1.5-.4-3.1-2.4-4.3s-4.8-1.6-7.5-1.4c.4 1.4 1.5 2.7 3.4 3.8z"/>

      <g>
        <path class="st21" d="M302.7 262.1c-2.7 0-5.4-.6-7.5-1.8l-53.4-30.9c-2-1.2-3.2-2.8-3.2-4.5 0-1.7 1.1-3.3 3.2-4.5 4.1-2.4 10.9-2.4 15 0l53.4 30.9c2 1.2 3.2 2.8 3.2 4.5 0 1.7-1.1 3.3-3.2 4.5-2.1 1.2-4.8 1.8-7.5 1.8zm-7.3-2.2c4 2.3 10.5 2.3 14.5 0 1.9-1.1 2.9-2.5 2.9-4.1 0-1.5-1-3-2.9-4.1L256.5 221c-4-2.3-10.5-2.3-14.5 0-1.9 1.1-2.9 2.5-2.9 4.1 0 1.5 1 3 2.9 4.1l53.4 30.7z"/>
      </g>

      <g>
        <path class="st21" d="M330.4 264.1l-6.1-3.5c-1-.6-2.7-.6-3.7 0l-9.6 5.5c-1 .6-1 1.6 0 2.2l6.1 3.5c1 .6 2.7.6 3.7 0l9.6-5.5c1-.7 1-1.6 0-2.2zm-10.1 7.4c-.8.4-2 .4-2.8 0l-6.1-3.5c-.8-.4-.8-1.2 0-1.6l2.7-1.6h4.2v2.6h.7v-1.3h5.8v2.7l-4.5 2.7zm5.3-3.1v-2.7h-6.5v-1.4h-4.2l6.1-3.5c.8-.4 2-.4 2.8 0l6.1 3.5c.8.4.8 1.2 0 1.6l-4.3 2.5z"/>

        <ellipse class="st21" cx="321.7" cy="262.6" rx="1.2" ry=".7"/>

        <path class="st21" d="M309.6 267.1c-.6-.4-.7-1-.1-1.4l8-6c.3-.2.8-.4 1.3-.4s1 0 1.4.2l1 .4c.2-.1.5-.1.7-.2l-1.3-.6c-.5-.2-1.2-.3-1.9-.3-.7.1-1.3.3-1.7.6l-8 6c-.8.6-.7 1.4.2 2 .1 0 .2.1.3.1l.1.1c-.1-.2 0-.3 0-.5z"/>
      </g>

      <path class="st23" d="M236.4 250c-4.7 2.7-12.3 2.7-16.9 0-4.7-2.7-4.7-7.1 0-9.8 4.7-2.7 12.3-2.7 16.9 0 4.7 2.7 4.7 7.1 0 9.8z"/>

      <ellipse class="st23" cx="179.7" cy="244.2" rx="7.2" ry="4.2"/>

      <path d="M261.6 264.5c-4.7 2.7-12.3 2.7-16.9 0-4.7-2.7-4.7-7.1 0-9.8s12.3-2.7 16.9 0c4.7 2.8 4.7 7.1 0 9.8z" fill="#c2d6ff"/>

      <path class="st23" d="M286.8 279.1c-4.7 2.7-12.3 2.7-16.9 0-4.7-2.7-4.7-7.1 0-9.8 4.7-2.7 12.3-2.7 16.9 0 4.7 2.7 4.7 7.1 0 9.8z"/>

      <path class="st1" d="M295.1 283.9c-3.5 2-4.4 5-2.6 7.5l15.6-9c-4.3-1.1-9.5-.6-13 1.5z"/>

      <g>
        <ellipse class="st1" cx="215.5" cy="229.9" rx="5.1" ry="2.9"/>

        <path class="st2" d="M217.8 231.2l-2.2-1.3 2.2-1.2-.1-.1-2.2 1.3-2.2-1.3-.1.1 2.2 1.2-2.2 1.3.1.1 2.2-1.3 2.2 1.3z"/>
      </g>

      <path class="st11" d="M260.9 287.5l-69-39.8 2-1.1 68.9 39.8zM257 289.7L188 250l2-1.2 68.9 39.8zM253 292l-68.9-39.8 2-1.1 68.9 39.8z"/>

      <g>
        <path class="st25" d="M271.8 291.9c-.4-.2-.9-.2-1.3 0s-.4.5 0 .8c.4.2.9.2 1.3 0 .3-.2.3-.6 0-.8zM274.2 293.3c-.4-.2-.9-.2-1.3 0s-.4.5 0 .8c.4.2.9.2 1.3 0s.4-.6 0-.8zM276.7 294.7c-.4-.2-.9-.2-1.3 0s-.4.5 0 .8c.4.2.9.2 1.3 0 .3-.2.3-.6 0-.8z"/>
      </g>

      <path class="st1" d="M213.1 336.7l-107.9-62.3 52-30 107.9 62.3z"/>

      <g>
        <path class="st18" d="M329.6 238.6c-1.9 1.1-5 1.1-6.8 0-1.9-1.1-1.9-2.9 0-4s5-1.1 6.8 0c1.9 1.1 1.9 2.9 0 4z"/>

        <text transform="matrix(.866 .5 -.866 .5 322.148 236.25)" class="st13 st19" font-size="5.268">
          12
        </text>
      </g>

      <g>
        <path class="st18" d="M353.4 252.3c-1.9 1.1-5 1.1-6.8 0-1.9-1.1-1.9-2.9 0-4s5-1.1 6.8 0c1.9 1.1 1.9 2.9 0 4z"/>

        <text transform="matrix(.866 .5 -.866 .5 347.02 250.612)" class="st13 st19 st20">
          4
        </text>
      </g>

      <g>
        <path class="st18" d="M289 215.1c-1.9 1.1-5 1.1-6.8 0-1.9-1.1-1.9-2.9 0-4s5-1.1 6.8 0c1.9 1.2 1.9 2.9 0 4z"/>

        <text transform="matrix(.866 .5 -.866 .5 282.609 213.421)" class="st13 st19 st20">
          3
        </text>
      </g>

      <g>
        <path class="st18" d="M270.2 204.3c-1.9 1.1-5 1.1-6.8 0-1.9-1.1-1.9-2.9 0-4s5-1.1 6.8 0c1.9 1.1 1.9 2.9 0 4z"/>

        <text transform="matrix(.866 .5 -.866 .5 263.817 202.57)" class="st13 st19 st20">
          8
        </text>
      </g>

      <g>
        <path class="st27" d="M145.1 305.5c2.3-1.3 2.2-3.5-.1-4.8-2.3-1.3-6.1-1.3-8.3.1-2.3 1.3-2.2 3.5.1 4.8 2.3 1.3 6 1.2 8.3-.1z"/>

        <path class="st9" d="M137 304.1c-.1 0-.1-.1 0-.2s.2-.1.3-.1c1 .3 1.8.7 2.4 1.3.1.1 0 .2-.1.2h-.3c-.6-.4-1.4-.9-2.3-1.2 0 .1 0 0 0 0zM139.2 303.4c-.6-.6-.9-1.1-1.1-1.7 0-.1-.1-.1-.2-.1s-.2.1-.2.1c0 .2.1.4.2.6-.1 0-.2 0-.4.1-.3.1-.5.4-.3.6.2.2.7.3 1 .1h.1l.3.3.1.1c.1 0 .2.1.3 0 .2 0 .2-.1.2-.1zM140.5 304.1c1 .3 1.9.5 3.1.6.1 0 .2.1.2.1 0 .1-.1.1-.2.1-.4 0-.7-.1-1.1-.1 0 .1 0 .1-.1.2-.2.2-.6.3-1 .2-.4-.1-.5-.4-.3-.6l.1-.1c-.2-.1-.4-.1-.6-.2-.1 0-.1 0-.2-.1-.1 0-.1-.1-.1-.1h.2z"/>
      </g>

      <g>
        <path class="st17" d="M135.7 299.9c2.2-1.4 2-3.5-.5-4.8-2.4-1.3-6.1-1.1-8.3.3-2.2 1.4-2 3.5.5 4.8 2.4 1.2 6.2 1.1 8.3-.3z"/>

        <path class="st1" d="M131.2 301.4c-.2.1-.9.3-1.5 0s-.4-.7-.1-.9c.7-.4 2.5-.7 2.5-.7s-.2 1.2-.9 1.6z"/>

        <path class="st9" d="M130.1 299.6c-.2-.3-.5-.5-.8-.7-.3-.2-.7-.3-1-.3-.1 0-.2-.1-.2-.2s.2-.1.3-.1c.5.1.9.2 1.2.4.4.2.7.5.9.8 0 .1 0 .2-.2.2 0-.1-.1-.1-.2-.1zM133.9 299c-.3.2-.8.3-1.1.1-.3-.1-.3-.4.1-.7s.8-.3 1.1-.1c.3.2.3.5-.1.7zM134.8 298.7c0-.4-.2-.6-.5-.7 0 0-.1 0-.2-.1-.1 0-.1-.1-.1-.1.1 0 .2-.1.3 0 .1 0 .1.1.2.1.4.2.6.5.6.8 0 .1-.1.1-.2.1l-.1-.1zM128.8 296.3c-.3.2-.4.5-.1.7.3.1.8.1 1.1-.1.3-.2.4-.5.1-.7-.3-.2-.8-.1-1.1.1zM129.1 295.7c-.1 0-.1 0 0 0-.1-.1 0-.2.1-.2.6-.1 1.1 0 1.5.2.1 0 .1.1.2.1s.1.1 0 .1h-.3l-.1-.1c-.3-.2-.7-.2-1.2-.2-.1.2-.2.2-.2.1z"/>
      </g>

      <path fill="#ee9ffc" d="M415.2 93.3L286.3 18.9v.1l-.1-.1v.1h-.1v.1l-.1-.1v.1h-.1v.1l-.1-.1v.1h-.1v.1l-.1-.1v.1l-.1-.1v.1h-.1v.1l-.1-.1v.1h-.1v.1-.1.1h-.2v.1-.1.1h-.2v.1-.1.1h-.2v.1-.1.1l-.1-.1v.1h-.1v.1l-.1-.1v.1h-.1v.1l-.1-.1v.1h-.1v.1l-.1-.1v.1h-.1v.1l-.1-.1v.1h-.1v.1l-.1-.1v.1-.1.1h-.2v.1-.1.1h-.2v.1-.1.1h-.2v.1-.1.1h-.1v.1l-.1-.1v.1h-.1v.1l-.1-.1v.1l-.1-.1v.1h-.1v.1l-.1-.1v.1h-.1v.1l-.1-.1v.1h-.1v.1l-.1-.1v.1h-.1v.1-.1.1h-.2v.1l-.1-.1v.1h-.1v.1l-.1-.1v.1h-.1v.1l-.1-.1v.1h-.1v.1l-.1-.1v.1h-.1v.1l-.1-.1v.1-.1.1h-.2v.1-.1.1h-.2v.1-.1.1h-.2v.1-.1.1h-.2v.1-.1.1h-.2v.1-.1.1l-.1-.1v.1h-.1v.1l-.1-.1v.1h-.1v.1l-.1-.1v.1h-.1v.1l-.1-.1v.1h-.1v.1l-.1-.1v.1h-.1v.1l-.1-.1v.1-.1.1h-.2v.1-.1.1h-.1v.1l-.1-.1v.1h-.1v103.8l27.5 16.2 109.7-49z"/>

      <path fill="#ea6bfc" d="M415.2 93.9l-109.7 49 52.3 31 12.3 38.5v-.2l.1.2v-.2.2-.3l.1.2v-.2l.1.2v-.2.2-.3l.1.2v-.2l.1.2v-.2.2-.3l.1.2v-.2l.1.2v-.2.2-.2l.1.1v-.2l.1.2v-.2.2-.2l.1.2v-.3l.1.2v-.2.2-.2l.1.2v-.3.2-.2l.1.2v-.2l.1.2v-.3.2-.2l.1.2v-.2l.1.2v-.3.2-.2l.1.2v-.2l.1.2v-.2.2-.3l.1.2v-.2l.1.2v-.2.2-.3l.1.2v-.2l.1.2v-.2.2-.3l.1.2v-.2.2-.2l.1.2v-.3l.1.2v-.2.2-.2l.1.2v-.3l.1.2v-.2.2-.2l.1.2v-.2l.1.2v-.3.2-.2l.1.2v-.2l.1.2v-.3.2-.2l.1.2v-.2l.1.2v-.3.2-.2l.1.2v-.2.2l.1-.3v.2-.2l.1.2v-.2.2-.2l.1.1v-.2l.1.2v-.2.2-.2l.1.2v-.3l.1.2v-.2.2-.2l.1.2v-.3l.1.2v-.2.2-.2l.1.2v-.3l.1.2v-.2.2-.2l.1.2v-.3.2l.1-.2v.2-.2l.1.2v-.2.1-.2l.1.2v-.2l.1.2v-.2.2-.3l.1.2v-.2l.1.2v-.2.2-.3l.1.2v-.2l.1.2v-.2.2-.3l.1.2v-.2l.1.2v-.2.2-.3l.1.2v-.2l.1.2v-.2.2-.2l.1.1v-.2.2-.2l.1.2v-.2l.1.2v-.3.2-.2l.1.2v-.2l.1.2v-.3.2-.2l.1.2v-.2l.1.2v-.3.2-.2l.1.2v-.2l.1.2v-.3.2-.2l.1.2v-.2l.1.2v-.2.1-.2l.1.2v-.2.2l.1-.2v.2-.3l.1.2v-.2.2-.2l.1.2v-.3l.1.2v-.2.2-.2l.1.2v-.3l.1.2v-.2.2-.2l.1.2v-.3l.1.2v-.2.2-.2l.1.2v-.2l.1.1v-.2.2-.2l.1.2v-.2.2l.1-.3v.2-.2l.1.2v-.2.2l.3-23.4 28.6 15.6v-.1h.2v-.1l.1.1v-.1h.1v-.1l.1.1v-.1h.1v-.1l.1.1v-.1h.1v-.1.1-.1h.2v-.1.1-.1h.2v-.1l.1.1v-.1h.1v-.1l.1.1v-.1h.1v-.1l.1.1v-.1h.1v-.1l.1.1v-.1h.1v-.1l.1.1v-.1h.2v-.1.1-.1h.2v-.1.1-.1h.2v-.1.1-.1h.2v-.1.1-.1h.2l-.1-.1.1.1v-.1l.1.1v-.1h.1v-.1l.1.1v-.1h.1v-.1l.1.1v-.1h.1v-.1l.1.1v-.1h.1v-.1l.1.1v-.1h.1v-.1l.1.1v-.1.1-.1h.1v-.1l.1.1v-.1h.1v-.1l.1.1v-.1h.1v-.1l.1.1v-.1h.1v-.1l.1.1v-.1h.1v-.1l.1.1v-.1l.1.1v-.1h.1v-.1.1-.1h.2v-.1.1-.1h.2v-.1.1-.1h.2v-.1.1-.1h.2v-.1.1-.1l.1.1v-.1h.1v-.1l.1.1v-.1h.1v-.1l.1.1v-.1h.1v-.1l.1.1v-.1h.1v-.1l.1.1v-.1h.1v-.1l.1.1v-.1.1-.1h.2v-.1.1-.1h.2v-.1.1-.1h.1v-.1l.1.1v-.1h.1v-.1l.1.1v-.1h.1z"/>

      <path class="st30" d="M407.1 200.7l-36.7-20.1-.4 31.8-12.3-38.6-79.7-47.1V22.9l128.9 74.4.2 103.4z"/>

      <path class="st2" d="M367.7 176l-7.6-3.9-79.4-46.9V27.7l123.4 71.2.3 97.1z"/>

      <path class="st30" d="M406.9 97.3L278 22.9v32.9l128.9 74.5z"/>

      <g>
        <ellipse transform="rotate(-30 303.097 55.774)" class="st0" cx="303.1" cy="55.8" rx="7" ry="12.1"/>
        <path class="st18" d="M299.1 52.5c0-2.5 1.8-3.5 4-2.3 2.2 1.3 4 4.3 4 6.8s-1.8 3.5-4 2.3c-2.2-1.2-4-4.3-4-6.8zM303.1 65.6c1.9 1.1 3.6 1.4 5 1-1.1-2.4-2.9-4.6-5-5.8-2.1-1.2-3.9-1.1-5 .1 1.4 2 3.1 3.7 5 4.7z"/>
      </g>

      <g>
        <path class="st0" d="M299.4 83.1c0 5.5-3.8 7.7-8.6 4.9-4.7-2.7-8.6-9.4-8.6-14.8 0-5.5 3.8-7.7 8.6-4.9 4.8 2.7 8.6 9.4 8.6 14.8z"/>
        <path class="st18" d="M286.9 74.9c0-2.5 1.8-3.5 4-2.3 2.2 1.3 4 4.3 4 6.8s-1.8 3.5-4 2.3c-2.2-1.2-4-4.3-4-6.8zM290.9 88.1c1.9 1.1 3.6 1.4 5 1-1.1-2.4-2.9-4.6-5-5.8-2.1-1.2-3.9-1.1-5 .1 1.4 1.9 3.1 3.6 5 4.7z"/>
      </g>

      <g>
        <path class="st31" d="M345.8 79.1l-30.4-17.5V55l30.4 17.6zM351.8 91.8l-36.4-21v-5.4l36.4 21z"/>
      </g>

      <path class="st2" d="M290.7 47.8l-7.5-4.4 2.7-1.3-.6-1.1-3.8 1.9 3.8 6.3.6-.4-2.7-4.5 7.5 4.3z"/>

      <path class="st1" d="M298 130.7l74.4 43c3.6 2.1 6.5.4 6.5-3.8v-6.3c0-4.1-2.9-9.2-6.5-11.3l-74.4-43c-3.6-2.1-6.5-.4-6.5 3.8v6.3c0 4.2 2.9 9.2 6.5 11.3z"/>

      <path d="M310.1 109.5l74.4 43c3.6 2.1 6.5.4 6.5-3.8v-15.4c0-4.1-2.9-9.2-6.5-11.3l-74.4-43c-3.6-2.1-6.5-.4-6.5 3.8v15.4c0 4.2 2.9 9.2 6.5 11.3z" fill="#d6d6d6"/>

      <g class="st33">
        <path class="st11" d="M157 275.5c2.8-1.6 2.7-4.2 0-5.8-2.8-1.6-7.3-1.6-10 0-2.8 1.6-2.7 4.2 0 5.8 2.8 1.6 7.2 1.6 10 0z"/>
      </g>

      <g class="st34">
        <path class="st11" d="M160 260.5c2.8-1.6 2.7-4.2 0-5.8-2.8-1.6-7.3-1.6-10 0-2.8 1.6-2.7 4.2 0 5.8 2.8 1.6 7.3 1.6 10 0z"/>
      </g>

      <g class="st35">
        <path class="st11" d="M126.5 257.5c-1.1-.6-2.4-1.1-3.7-1.3l-11.6 6.5c.4.8 1.2 1.6 2.3 2.3 3.6 2.1 9.4 2.1 13 0 3.6-2.1 3.6-5.5 0-7.5z"/>
      </g>

      <g class="st33">
        <path class="st11" d="M172.8 285.6c2.8-1.6 2.7-4.2 0-5.8-2.8-1.6-7.3-1.6-10 0-2.8 1.6-2.7 4.2 0 5.8 2.8 1.6 7.3 1.6 10 0z"/>
      </g>

      <g class="st33">
        <path class="st11" d="M155.1 300.6c2.8-1.6 2.7-4.2 0-5.8-2.8-1.6-7.3-1.6-10 0-2.8 1.6-2.7 4.2 0 5.8 2.7 1.6 7.2 1.6 10 0z"/>
      </g>

      <g class="st33">
        <path class="st11" d="M135.3 290.8c2.8-1.6 2.7-4.2 0-5.8-2.8-1.6-7.3-1.6-10 0-2.8 1.6-2.7 4.2 0 5.8 2.7 1.6 7.2 1.6 10 0z"/>
      </g>

      <g class="st34">
        <ellipse transform="matrix(.0852 -.9964 .9964 .0852 -173.838 358.464)" class="st11" cx="108.3" cy="273.9" rx="4.1" ry="7.1"/>
      </g>

      <g class="st33">
        <path class="st11" d="M196.8 280.5c2.8-1.6 2.7-4.2 0-5.8-2.8-1.6-7.3-1.6-10 0-2.8 1.6-2.7 4.2 0 5.8 2.7 1.6 7.2 1.6 10 0z"/>
      </g>

      <g class="st33">
        <path class="st11" d="M184.1 272.3c2.8-1.6 2.7-4.2 0-5.8-2.8-1.6-7.3-1.6-10 0-2.8 1.6-2.7 4.2 0 5.8 2.8 1.6 7.3 1.6 10 0z"/>
      </g>

      <g class="st35">
        <path class="st11" d="M162.8 245c3.1-1.8 3-4.6 0-6.4-3.1-1.8-8-1.8-11.1 0s-3 4.6 0 6.4c3.1 1.8 8.1 1.8 11.1 0z"/>
      </g>

      <g class="st33">
        <path class="st11" d="M184 296.1c2.8-1.6 2.7-4.2 0-5.8-2.8-1.6-7.3-1.6-10 0-2.8 1.6-2.7 4.2 0 5.8 2.8 1.6 7.3 1.6 10 0z"/>
      </g>

      <g class="st33">
        <ellipse class="st11" cx="205.4" cy="304.3" rx="7.2" ry="4.2"/>
      </g>

      <g class="st33">
        <path class="st11" d="M214 295.3c2.8-1.6 2.7-4.2 0-5.8s-7.3-1.6-10 0c-2.8 1.6-2.7 4.2 0 5.8 2.7 1.6 7.2 1.6 10 0z"/>
      </g>

      <g>
        <path class="st17 srt4" d="M227.8 307.5c2.7-1.7 2.6-4.4-.4-5.9-2.9-1.6-7.5-1.5-10.3.2s-2.6 4.4.4 5.9c2.9 1.6 7.5 1.5 10.3-.2z"/>

        <path class="st9 srt4" d="M219.4 301.9l-.6.3c-2 1.2-1.8 3.2.4 4.4 2.2 1.2 5.6 1.2 7.6-.1.2-.1.4-.3.6-.4-.9-.8-2-1.6-3.4-2.3-1.4-.8-3-1.4-4.6-1.9z"/>

        <path class="st18 srt4" d="M224 307.5c-.3-.8-1-1.6-2.2-2.2-1.3-.7-2.8-1.1-4.4-1.1-.1.9.5 1.9 1.8 2.6 1.3.6 3.1.9 4.8.7z"/>

        <path class="st9 srt4" d="M227.9 305.4l-1.6-1.4c-.1 0 0-.1 0-.2.1 0 .2-.1.3 0l2.1.5c.1 0 .2.1.1.2 0 .1-.2.1-.3.1l-1.4-.3 1.2 1c.1.1 0 .1-.1.2-.1-.1-.2-.1-.3-.1zM220.8 301.6c-.1 0-.1-.1 0-.2s.2-.1.3-.1l1.9.6-.6-.8c-.1-.1 0-.1.1-.2.1 0 .2 0 .3.1l.9 1.1v.2h-.3l-2.6-.7z"/>
      </g>

      <g>
        <path class="st17" d="M159.3 244c2.9-1.4 3-4 .3-5.9-2.7-1.9-7.3-2.3-10.2-.9-2.9 1.4-3 4-.3 5.9 2.8 1.8 7.3 2.3 10.2.9z"/>

        <path class="st9" d="M151.7 237.5c-.2.1-.5.2-.7.3-2.1 1-2.2 3-.1 4.4 2.1 1.4 5.5 1.8 7.6.8.2-.1.4-.2.6-.4-.8-.9-1.8-1.8-3.1-2.7-1.3-1-2.8-1.8-4.3-2.4z"/>

        <path class="st18" d="M155.6 243.5c-.2-.9-.9-1.7-1.9-2.5-1.2-.8-2.7-1.4-4.2-1.6-.2.9.3 1.9 1.5 2.7 1.2 1 3 1.4 4.6 1.4z"/>

        <path class="st9" d="M159.7 241.9s0-.1 0 0l-1.4-1.6v-.2h.3l2 .7c.1 0 .2.1.1.2s-.2.1-.3 0l-1.4-.5 1 1.2c.1.1 0 .1-.1.2h-.2zM153.1 237.3c-.1 0-.1-.1 0-.2s.2-.1.3 0l1.8.8-.6-.8c0-.1 0-.1.1-.2s.2 0 .3.1l.8 1.2c0 .1 0 .1-.1.1h-.3l-2.3-1z"/>
      </g>

      <g>
        <path class="st17" d="M168.1 300.1c2.7-1.7 2.6-4.4-.4-5.9-2.9-1.6-7.5-1.5-10.3.2-2.7 1.7-2.6 4.4.4 5.9 2.9 1.5 7.5 1.5 10.3-.2z"/>

        <path class="st9" d="M159.8 294.5l-.6.3c-2 1.2-1.8 3.2.4 4.4 2.2 1.2 5.6 1.2 7.6-.1.2-.1.4-.3.6-.4-.9-.8-2-1.6-3.4-2.3-1.5-.8-3.1-1.5-4.6-1.9z"/>

        <path class="st18" d="M164.3 300c-.3-.8-1-1.6-2.2-2.2-1.3-.7-2.8-1.1-4.4-1.1-.1.9.5 1.9 1.8 2.6 1.4.6 3.2.9 4.8.7z"/>

        <path class="st9" d="M168.2 297.9l-1.6-1.4c-.1 0 0-.1 0-.2.1 0 .2-.1.3 0l2.1.5c.1 0 .2.1.1.2 0 .1-.2.1-.3.1l-1.4-.3 1.2 1c.1.1 0 .1-.1.2-.1 0-.2 0-.3-.1zM161.1 294.1c-.1 0-.1-.1 0-.2s.2-.1.3-.1l1.9.6-.6-.8c-.1-.1 0-.1.1-.2.1 0 .2 0 .3.1l.9 1.1v.2h-.3l-2.6-.7c.1 0 0 0 0 0z"/>
      </g>

      <g>
        <path class="st17" d="M125 238.2c3.9-1.7 4.5-4.9 1.5-7.1-3-2.2-8.7-2.7-12.5-1-3.9 1.7-4.5 4.9-1.5 7.1 3 2.2 8.7 2.6 12.5 1z"/>

        <path class="st9" d="M116.8 230.5l-.9.3c-2.8 1.2-3.3 3.6-1 5.3 2.3 1.7 6.4 2.1 9.3.8.3-.1.6-.3.8-.4-.8-1.1-1.9-2.2-3.3-3.2-1.5-1.1-3.2-2-4.9-2.8z"/>

        <path class="st18" d="M120.5 237.6c-.1-1-.7-2.1-1.9-2.9-1.3-1-3.1-1.6-4.9-1.9-.4 1.1 0 2.3 1.3 3.3s3.4 1.6 5.5 1.5z"/>

        <path class="st9" d="M125.9 235.6l-1.5-1.9c0-.1 0-.1.1-.2.1 0 .2-.1.3 0l2.3.8c.1 0 .2.1.1.2s-.2.1-.4.1l-1.6-.6 1.1 1.4c.1.1 0 .2-.1.2-.1.1-.2.1-.3 0zM118.5 230.2c-.1-.1-.1-.1 0-.2s.3-.1.4 0l2.1.9-.5-1c0-.1 0-.2.2-.2.1 0 .3 0 .3.1l.8 1.5c0 .1 0 .1-.1.2h-.3l-2.9-1.3c.1 0 0 0 0 0z"/>
      </g>

      <g>
        <path class="st17" d="M135.7 278.8c2.7-1.7 2.6-4.4-.4-5.9-2.9-1.6-7.5-1.5-10.3.2-2.7 1.7-2.6 4.4.4 5.9 2.9 1.6 7.5 1.5 10.3-.2z"/>

        <path class="st9" d="M127.3 273.2l-.6.3c-2 1.2-1.8 3.2.4 4.4 2.2 1.2 5.6 1.2 7.6-.1.2-.1.4-.3.6-.4-.9-.8-2-1.6-3.4-2.3-1.4-.8-3-1.4-4.6-1.9z"/>

        <path class="st18" d="M131.9 278.8c-.3-.8-1-1.6-2.2-2.2-1.3-.7-2.8-1.1-4.4-1.1-.1.9.5 1.9 1.8 2.6 1.3.6 3.1.8 4.8.7z"/>

        <path class="st9" d="M135.8 276.7s0-.1 0 0l-1.6-1.4c-.1 0 0-.1 0-.2.1 0 .2-.1.3 0l2.1.5c.1 0 .2.1.1.2 0 .1-.2.1-.3.1l-1.4-.3 1.2 1c.1.1 0 .1-.1.2-.1-.1-.2-.1-.3-.1zM128.7 272.8c-.1 0-.1-.1 0-.2s.2-.1.3-.1l1.9.6-.6-.8c-.1-.1 0-.1.1-.2.1 0 .2 0 .3.1l.9 1.1v.2h-.3l-2.6-.7c0 .1 0 0 0 0z"/>
      </g>

      <g>
        <path class="st18" d="M184.1 259.9c2.8-1.6 2.7-4.2 0-5.8-2.8-1.6-7.3-1.6-10 0-2.8 1.6-2.7 4.2 0 5.8s7.3 1.6 10 0z"/>

        <path class="st2" d="M183.5 256.6c-.9-.7-2.4-.6-2.9-.5.2-.3.5-1.2-.8-1.7-1.8-.8-4.1.3-4 1.9 0 1.6.5 2.2.5 2.2s1.1.3 3.9.3c2.8.2 4.6-1.1 3.3-2.2z"/>
      </g>

      <g>
        <path class="st18 srt8" d="M160.3 220.8c3.6-1.5 4-4.6.9-6.9-3.1-2.3-8.4-2.9-12-1.4-3.6 1.5-4 4.6-.9 6.9 3 2.3 8.4 2.9 12 1.4z"/>

        <path class="st2 srt8" d="M160 216.8c-1-1-2.7-1-3.4-1 .3-.4.7-1.3-.7-2.1-2.1-1.2-4.9-.2-5.1 1.8-.2 1.9.3 2.8.3 2.8s1.2.5 4.6.9c3.3.4 5.7-.9 4.3-2.4z"/>
      </g>

      <g>
        <path class="st18" d="M214 291.7c2.8-1.6 2.7-4.2 0-5.8-2.8-1.6-7.3-1.6-10 0-2.8 1.6-2.7 4.2 0 5.8 2.7 1.6 7.2 1.6 10 0z"/>

        <path class="st2" d="M213.3 288.5c-.9-.7-2.4-.6-2.9-.5.2-.3.5-1.2-.8-1.7-1.8-.8-4.1.3-4 1.9 0 1.6.5 2.2.5 2.2s1.1.3 3.9.3c2.8.1 4.6-1.1 3.3-2.2z"/>
      </g>

      <g>
        <path class="st18" d="M172.7 277.1c2.8-1.6 2.7-4.2 0-5.8-2.8-1.6-7.3-1.6-10 0-2.8 1.6-2.7 4.2 0 5.8 2.8 1.6 7.3 1.6 10 0z"/>

        <path class="st2" d="M172 273.8c-.9-.7-2.4-.6-2.9-.5.2-.3.5-1.2-.8-1.7-1.8-.8-4.1.3-4 1.9 0 1.6.5 2.2.5 2.2s1.1.3 3.9.3c2.9.2 4.7-1.1 3.3-2.2z"/>
      </g>

      <g>
        <path class="st18" d="M184.8 305.1c2.8-1.6 2.7-4.2 0-5.8-2.8-1.6-7.3-1.6-10 0-2.8 1.6-2.7 4.2 0 5.8 2.8 1.6 7.2 1.6 10 0z"/>
        <path class="st2" d="M184.1 301.8c-.9-.7-2.4-.6-2.9-.5.2-.3.5-1.2-.8-1.7-1.8-.8-4.1.3-4 1.9 0 1.6.5 2.2.5 2.2s1.1.3 3.9.3c2.9.2 4.6-1.1 3.3-2.2z"/>
      </g>

      <g>
        <path class="st18" d="M221.6 327.3c2.8-1.6 2.7-4.2 0-5.8-2.8-1.6-7.3-1.6-10 0-2.8 1.6-2.7 4.2 0 5.8 2.8 1.6 7.3 1.6 10 0z"/>

        <path class="st2" d="M221 324c-.9-.7-2.4-.6-2.9-.5.2-.3.5-1.2-.8-1.7-1.8-.8-4.1.3-4 1.9 0 1.6.5 2.2.5 2.2s1.1.3 3.9.3c2.8.2 4.6-1.1 3.3-2.2z"/>
      </g>

      <g>
        <ellipse class="st1" cx="196.6" cy="316.9" rx="7.2" ry="4.2"/>

        <path class="st2" d="M192.2 317c-.4-.3-.4-.6.1-.9l1.8-.9c.4-.2 1.1-.2 1.5 0 .4.3.4.6-.1.9l-1.8.9c-.5.3-1.2.3-1.5 0zM199.2 318.2c.2.1.5 0 .8-.1.3-.1.3-.4.1-.6l-1.3-.8c.1 0 .8-.1 1-.2.2 0 .4-.1.5-.2.2-.1.3-.2.5-.4.1-.2.2-.4-.1-.6-.3-.1-.7-.1-.9.1l-.2.2c-.1 0-.4 0-.7.1-.6 0-1.5.1-1.8.1-.3 0-.5.1-.7.2h-.1l-2.2 1.1c-.2.1-.2.3 0 .4l2.3 1.5c.2.2.6.2.9 0 .1-.1.2-.1.2-.2.2.1.5 0 .7-.1.1-.1.2-.1.2-.2.2.1.5 0 .7-.1.1.1.2 0 .1-.2z"/>
      </g>

      <g>
        <ellipse class="st1" cx="179.5" cy="287.9" rx="7.2" ry="4.2"/>

        <path class="st2" d="M175.1 288c-.4-.3-.4-.6.1-.9l1.8-.9c.4-.2 1.1-.2 1.5 0 .4.3.4.6-.1.9l-1.8.9c-.4.2-1.1.2-1.5 0zM182.1 289.2c.2.1.5 0 .8-.1.3-.1.3-.4.1-.6l-1.3-.8c.1 0 .8-.1 1-.2.2 0 .4-.1.5-.2.2-.1.3-.2.5-.4.1-.2.2-.4-.1-.6-.3-.1-.7-.1-.9.1l-.2.2c-.1 0-.4 0-.7.1-.6 0-1.5.1-1.8.1-.3 0-.5.1-.7.2h-.1l-2.2 1.1c-.2.1-.2.3 0 .4l2.3 1.5c.2.2.6.2.9 0 .1-.1.2-.1.2-.2.2.1.5 0 .7-.1.1-.1.2-.1.2-.2.2.1.5 0 .7-.1.1.1.2-.1.1-.2z"/>
      </g>

      <g>
        <path class="st1" d="M155.3 290.5c-3 1.5-7.6 1.4-10.2-.3-2.7-1.7-2.4-4.4.5-5.9 3-1.5 7.6-1.4 10.2.3 2.7 1.7 2.5 4.4-.5 5.9z"/>

        <path class="st2" d="M146.1 287.5c-.4-.3-.4-.6.1-.9l1.8-.9c.4-.2 1.1-.2 1.5 0 .4.3.4.6-.1.9l-1.8.9c-.5.3-1.1.3-1.5 0zM153.1 288.7c.2.1.5 0 .8-.1.3-.1.3-.4.1-.6l-1.3-.8c.1 0 .8-.1 1-.2.2 0 .4-.1.5-.2.2-.1.3-.2.5-.4.1-.2.2-.4-.1-.6-.3-.1-.7-.1-.9.1l-.2.2c-.1 0-.4 0-.7.1-.6 0-1.5.1-1.8.1-.3 0-.5.1-.7.2h-.1l-2.2 1.1c-.2.1-.2.3 0 .4l2.3 1.5c.2.2.6.2.9 0 .1-.1.2-.1.2-.2.2.1.5 0 .7-.1.1-.1.2-.1.2-.2.2.1.5 0 .7-.1.1.1.2-.1.1-.2z"/>
      </g>

      <g>
        <path class="st1" d="M112.9 261.7c-3.1 1.2-7.7.7-10.2-1.3-2.5-2-2-4.6 1.1-5.8 3.1-1.2 7.7-.7 10.2 1.3 2.5 1.9 2 4.5-1.1 5.8z"/>

        <path class="st2" d="M104 257.8c-.4-.3-.3-.7.2-.9l1.9-.7c.5-.2 1.1-.1 1.5.2.4.3.3.7-.2.9l-1.9.7c-.5.1-1.1.1-1.5-.2z"/>

        <path class="st2" d="M110.9 259.6c.2.1.5.1.8 0 .3-.1.3-.4.1-.6l-1.2-1c.1 0 .8 0 1-.1.2 0 .4-.1.5-.1.2-.1.4-.2.5-.3.2-.2.3-.4 0-.6-.3-.2-.7-.1-.9 0 0 0-.1.1-.2.1h-.7c-.6 0-1.5-.1-1.8-.1-.3 0-.5 0-.8.1h-.1l-2.3.9c-.2.1-.2.3-.1.4l2.2 1.7c.2.2.6.2.9.1.1 0 .2-.1.2-.2.2.1.5.1.7 0 .1-.1.2-.1.2-.2.2.1.5.1.7 0 .3.2.4.1.3-.1z"/>
      </g>

      <g>
        <path class="st1 heart" d="M196.4 273.7c-3 1.5-7.6 1.4-10.2-.3-2.7-1.7-2.4-4.4.5-5.9 3-1.5 7.6-1.4 10.2.3 2.7 1.7 2.5 4.3-.5 5.9z"/>

        <path class="st2 heart" d="M187.1 270.7c-.4-.3-.4-.6.1-.9l1.8-.9c.4-.2 1.1-.2 1.5 0 .4.3.4.6-.1.9l-1.8.9c-.4.3-1.1.2-1.5 0zM194.2 271.9c.2.1.5 0 .8-.1.3-.1.3-.4.1-.6l-1.3-.8c.1 0 .8-.1 1-.2.2 0 .4-.1.5-.2.2-.1.3-.2.5-.4.1-.2.2-.4-.1-.6-.3-.1-.7-.1-.9.1l-.2.2c-.1 0-.4 0-.7.1-.6 0-1.5.1-1.8.1-.3 0-.5.1-.7.2h-.1l-2.2 1.1c-.2.1-.2.3 0 .4l2.3 1.5c.2.2.6.2.9 0 .1-.1.2-.1.2-.2.2.1.5 0 .7-.1.1-.1.2-.1.2-.2.2.1.5 0 .7-.1.1.1.2-.1.1-.2z"/>
      </g>

      <g>
        <ellipse class="st1 srt" cx="151.9" cy="261.6" rx="7.2" ry="4.2"/>

        <path class="st2 srt" d="M147.5 261.7c-.4-.3-.4-.6.1-.9l1.8-.9c.4-.2 1.1-.2 1.5 0 .4.3.4.6-.1.9l-1.8.9c-.4.3-1.1.3-1.5 0zM154.5 262.9c.2.1.5 0 .8-.1.3-.1.3-.4.1-.6l-1.3-.8c.1 0 .8-.1 1-.2.2 0 .4-.1.5-.2.2-.1.3-.2.5-.4.1-.2.2-.4-.1-.6-.3-.1-.7-.1-.9.1l-.2.2c-.1 0-.4 0-.7.1-.6 0-1.5.1-1.8.1-.3 0-.5.1-.7.2h-.1l-2.2 1.1c-.2.1-.2.3 0 .4l2.3 1.5c.2.2.6.2.9 0 .1-.1.2-.1.2-.2.2.1.5 0 .7-.1.1-.1.2-.1.2-.2.2.1.5 0 .7-.1.1.1.2-.1.1-.2z"/>
      </g>

      <g>
        <path class="st1" d="M210.3 304.9c-3 1.5-7.6 1.4-10.2-.3-2.7-1.7-2.4-4.4.5-5.9 3-1.5 7.6-1.4 10.2.3 2.7 1.7 2.4 4.4-.5 5.9z"/>

        <path class="st2" d="M201 301.9c-.4-.3-.4-.6.1-.9l1.8-.9c.4-.2 1.1-.2 1.5 0 .4.3.4.6-.1.9l-1.8.9c-.4.3-1.1.3-1.5 0zM208.1 303.1c.2.1.5 0 .8-.1.3-.1.3-.4.1-.6l-1.3-.8c.1 0 .8-.1 1-.2.2 0 .4-.1.5-.2.2-.1.3-.2.5-.4.1-.2.2-.4-.1-.6-.3-.1-.7-.1-.9.1l-.2.2c-.1 0-.4 0-.7.1-.6 0-1.5.1-1.8.1-.3 0-.5.1-.7.2h-.1L203 302c-.2.1-.2.3 0 .4l2.3 1.5c.2.2.6.2.9 0 .1-.1.2-.1.2-.2.2.1.5 0 .7-.1.1-.1.2-.1.2-.2.2.1.5 0 .7-.1.1.1.1-.1.1-.2z"/>
      </g>

      <g class="st33">
        <path class="st11" d="M184.8 309.6c2.8-1.6 2.7-4.2 0-5.8-2.8-1.6-7.3-1.6-10 0-2.8 1.6-2.7 4.2 0 5.8 2.8 1.6 7.2 1.6 10 0z"/>
      </g>

      <g class="st33">
        <path class="st11" d="M167.8 307.3c2.8-1.6 2.7-4.2 0-5.8-2.8-1.6-7.3-1.6-10 0-2.8 1.6-2.7 4.2 0 5.8 2.7 1.6 7.2 1.6 10 0z"/>
      </g>

      <g>
        <path class="st17" d="M124.3 24.3c3-6.4.3-14-6.2-17.1-6.4-3-14-.3-17.1 6.2-3 6.4-.3 14 6.2 17.1 6.5 2.9 14.1.2 17.1-6.2z"/>

        <path class="st9" d="M113.3 24.9c-1.3 2.7-3.6 4.2-5.2 3.5-1.6-.7-1.9-3.5-.6-6.2 1.3-2.7 3.6-4.2 5.2-3.5s1.9 3.6.6 6.2zM110.4 14.5c-.9 1.3-2.3 1.8-3.1 1.3-.8-.6-.8-2.1.1-3.4.9-1.3 2.3-1.8 3.1-1.3.8.6.7 2.1-.1 3.4zM109.5 8.1c-.1 0-.1-.1-.1-.1-.1-.2-.1-.4.1-.6.8-.6 1.9-.8 2.7-.4.7.3 1.2 1 1.4 1.8 0 .2-.1.4-.3.5-.2 0-.4-.1-.5-.3-.1-.6-.5-1-1-1.3-.6-.3-1.3-.2-1.9.3-.1.2-.3.2-.4.1z"/>

        <g>
          <path class="st9" d="M117.5 17.9c-.4 1.5 0 2.9 1 3.2 1 .3 2.1-.7 2.5-2.2.4-1.5 0-2.9-1-3.2-.9-.3-2.1.7-2.5 2.2zM123 14.4c-.1-.1-.2-.2-.2-.3 0-.8-.4-1.4-1-1.7-.5-.2-1.1-.2-1.6.1-.2.1-.4 0-.5-.2-.1-.2 0-.4.2-.5.7-.4 1.6-.4 2.3-.1.9.4 1.4 1.3 1.5 2.3 0 .2-.2.4-.4.4-.2.1-.3.1-.3 0z"/>
        </g>

      </g>

      <g>
        <ellipse transform="rotate(-28.103 69.254 187.203)" class="st17" cx="69.3" cy="187.2" rx="10.8" ry="9.6"/>

        <path class="st9" d="M72.7 190.3c.5 2.2-.2 4.2-1.6 4.7-1.4.4-3-1-3.5-3.2s.2-4.2 1.6-4.7c1.4-.4 3 1 3.5 3.2zM65.6 186c.1 1.2-.6 2.2-1.4 2.3-.8.1-1.6-.8-1.6-1.9-.1-1.2.6-2.2 1.4-2.3.8-.1 1.5.7 1.6 1.9zM61.8 182.9h-.2c-.2 0-.3-.2-.2-.4.2-.8.8-1.4 1.6-1.6.6-.2 1.3-.1 1.8.3.1.1.2.3 0 .4-.1.1-.3.2-.5.1-.4-.3-.8-.3-1.2-.2-.5.2-.9.6-1.1 1.2 0 .1-.1.2-.2.2z"/>

        <g>
          <path class="st9" d="M71.9 184.2c.5 1.1 1.5 1.6 2.3 1.3.8-.4 1-1.5.5-2.6s-1.5-1.6-2.3-1.3c-.7.3-1 1.5-.5 2.6zM73.8 179.4c-.1 0-.2 0-.3-.1-.4-.4-.9-.6-1.5-.4-.4.1-.8.4-1 .9-.1.2-.3.2-.4.2-.2-.1-.2-.2-.2-.4.3-.6.8-1.1 1.4-1.2.8-.2 1.6 0 2.1.5.1.1.1.3 0 .4 0 0-.1 0-.1.1z"/>
        </g>

      </g>

      <g class="heart face">
        <ellipse transform="rotate(-87.968 101.715 165.356) scale(1.00003)" class="st17" cx="101.7" cy="165.4" rx="8.9" ry="10.2"/>

        <path class="st9" d="M94.2 163.4c-.1.3-.1.7-.1 1-.1 3.6 3.2 6.6 7.4 6.8 4.2.2 7.8-2.6 7.9-6.2 0-.4 0-.8-.1-1.2-2.3-.6-4.7-1-7.3-1.1-2.7-.1-5.4.2-7.8.7z"/>

        <path class="st18" d="M107.9 168.6c-1.7-1.1-3.7-1.8-5.9-1.9-2.4-.1-4.6.5-6.4 1.7 1.4 1.6 3.5 2.6 6 2.7 2.5.2 4.8-.8 6.3-2.5z"/>

        <path class="st9" d="M108.6 162.2l-3.9-1c-.1 0-.2-.1-.2-.3 0-.1.1-.2.2-.3l2.9-.9c.2 0 .3 0 .4.2.1.1 0 .3-.2.4l-2 .6 2.9.7c.2 0 .3.2.2.3 0 .2-.1.3-.3.3zM95 161.7c-.1 0-.3-.1-.3-.2s.1-.3.2-.3l2.9-.5-1.9-.7c-.2-.1-.2-.2-.2-.4.1-.1.3-.2.4-.1l2.8 1.1c.1 0 .2.2.2.3 0 .1-.1.2-.2.2l-3.9.6c.1 0 .1 0 0 0z"/>
      </g>

      <g>
        <path class="st17" d="M108.7 75c-1.9-6.3-8.3-10-14.3-8.2-6 1.8-9.3 8.4-7.4 14.7 1.9 6.3 8.3 10 14.3 8.2 6-1.8 9.3-8.4 7.4-14.7z"/>

        <path class="st9" d="M89.1 78.5c.1.5.2.9.3 1.4 1.4 4.6 6.2 7.3 10.7 5.9 4.5-1.4 7.1-6.2 5.7-10.8-.2-.5-.3-1-.6-1.4-2.6.1-5.4.5-8.1 1.3-3 .8-5.7 2.1-8 3.6z"/>

        <path class="st18" d="M105.7 80.2c-2.2-.8-4.6-.9-7-.2-2.6.8-4.6 2.4-6.1 4.5 2.1 1.5 4.8 2.1 7.4 1.3 2.8-.9 4.9-3 5.7-5.6z"/>

        <path class="st9" d="M103.7 71.7l-4.5.2c-.2 0-.3-.1-.4-.2-.1-.2 0-.3.1-.4l2.7-2.2c.2-.1.4-.1.5.1.1.2.1.4-.1.5l-1.8 1.5 3.4-.1c.2 0 .4.2.4.4 0 0-.1.1-.3.2zM89.3 76c-.2 0-.3 0-.4-.2-.1-.2-.1-.4.1-.5l2.9-1.8-2.3-.2c-.2 0-.3-.2-.3-.4s.2-.4.4-.3l3.3.4c.2 0 .3.1.3.3 0 .2 0 .3-.2.4L89.3 76z"/>
      </g>

      <g>
        <path class="st1" d="M140.9 46.7c2.5 6.1-.4 13-6.5 15.5s-13-.4-15.5-6.5.4-13 6.5-15.5c6-2.5 13 .4 15.5 6.5z"/>

        <path class="st2" d="M128.4 57.8l-1.2.5c-.6.2-1.2 0-1.4-.6l-2-4.8c-.2-.6 0-1.2.6-1.4l1.2-.5c.6-.2 1.2 0 1.4.6l2 4.8c.2.6-.1 1.2-.6 1.4zM134.8 48.3c.3-.3.4-.8.2-1.2-.2-.6-.9-.9-1.5-.6l-3 1.2c0-.2.1-1.3.1-1.7 0-.3-.1-.7-.2-1-.2-.4-.4-.7-.7-1-.4-.4-1-.8-1.6-.4-.5.3-.6 1.1-.2 1.5 0 0 .3.3.3.5s-.1.6-.2 1.1c-.3 1-.7 2.4-.7 2.9-.1.5 0 .9.1 1.3 0 .1 0 .2.1.2l1.8 4.5c.2.4.6.6 1.1.4l5.3-2.2c.5-.2.8-.8.6-1.4-.1-.2-.2-.4-.4-.5.3-.3.4-.8.2-1.2-.1-.2-.3-.4-.5-.5.3-.3.4-.8.2-1.2-.2-.4-.6-.6-1-.7z"/>
      </g>

      <g>
        <ellipse transform="rotate(-62.42 38.223 89.085)" class="st1" cx="38.2" cy="89.1" rx="13.1" ry="13.7"/>

        <path class="st2" d="M31.5 92.5l-1.6-.9c-.5-.3-.7-.9-.5-1.5l2.8-5.3c.3-.5.9-.7 1.5-.5l1.6.9c.5.3.7.9.5 1.5L33 92c-.3.6-1 .8-1.5.5zM44.4 91.4c.5 0 1-.2 1.2-.7.3-.6.1-1.4-.6-1.7l-3.3-1.7c.2-.2 1.2-.8 1.6-1.1.3-.2.5-.5.7-.9.2-.4.3-.9.4-1.3 0-.6-.1-1.4-.8-1.6-.7-.2-1.4.2-1.4.9 0 0-.1.5-.2.6-.1.2-.6.3-1.1.6-1.1.5-2.5 1.1-3 1.4-.5.3-.8.6-1.1 1l-.2.2-2.5 4.7c-.2.4 0 1 .4 1.2l5.8 3.1c.6.3 1.3.1 1.6-.5.1-.2.1-.5.1-.7.5.1 1-.2 1.2-.6.1-.3.2-.6.1-.8.5 0 .9-.2 1.2-.7.3-.5.2-1.1-.1-1.4z"/>
      </g>

      <g>
        <ellipse transform="rotate(-5.468 140.341 96.888) scale(.99995)" class="st1 srt10" cx="140.3" cy="96.9" rx="11.9" ry="11.9"/>

        <path class="st2 srt10" d="M135 101.1l-1.3-.4c-.6-.2-.9-.8-.7-1.4l1.5-5c.2-.6.8-.9 1.4-.7l1.3.4c.6.2.9.8.7 1.4l-1.5 5c-.3.5-.9.8-1.4.7zM146 97.8c.4 0 .8-.4 1-.8.2-.6-.2-1.2-.8-1.4l-3.1-.9c.1-.2.9-1 1.2-1.2.2-.2.4-.6.5-.9.1-.4.2-.8.1-1.3-.1-.6-.3-1.2-.9-1.3-.6-.1-1.1.4-1.1 1 0 0 0 .4-.1.6-.1.2-.4.4-.9.7-.9.6-2 1.4-2.4 1.8-.4.4-.6.7-.8 1.1 0 .1-.1.1-.1.2l-1.4 4.6c-.1.4.1.9.5 1l5.4 1.7c.6.2 1.1-.1 1.3-.7.1-.2.1-.5 0-.7.4 0 .8-.3.9-.7.1-.3.1-.5 0-.7.4-.1.8-.4.9-.8.2-.5.1-1-.2-1.3z"/>
      </g>

      <g>
        <ellipse transform="rotate(-24.591 83.67 121.464)" class="st1" cx="83.7" cy="121.5" rx="12" ry="11"/>

        <path class="st2" d="M82.2 127.8l-1.2.6c-.5.2-1.2 0-1.4-.5l-1.9-4.2c-.2-.5 0-1.2.5-1.4l1.2-.6c.5-.2 1.2 0 1.4.5l1.9 4.2c.3.5 0 1.1-.5 1.4zM88.6 118.4c.3-.3.4-.8.2-1.2-.2-.5-.9-.7-1.5-.5l-3 1.4c0-.2.1-1.3.1-1.6 0-.3-.1-.6-.2-.9-.2-.4-.4-.7-.7-.9-.4-.3-1-.6-1.6-.3-.5.3-.6 1-.2 1.4 0 0 .3.3.3.4 0 .2-.1.6-.2 1-.3 1-.6 2.3-.7 2.7-.1.5 0 .9.1 1.2 0 .1 0 .1.1.2l1.9 4c.2.4.6.5 1.1.3l5.3-2.4c.5-.2.8-.8.6-1.3-.1-.2-.2-.3-.4-.4.3-.3.4-.7.2-1.1-.1-.2-.3-.4-.5-.5.3-.3.4-.7.2-1.1-.3-.2-.7-.4-1.1-.4z"/>
      </g>

      <g>
        <path class="st1" d="M133.1 207.8c-4.3 2.8-10.1 1.5-12.9-2.8-2.8-4.3-1.5-10.1 2.8-12.9 4.3-2.8 10.1-1.5 12.9 2.8 2.8 4.3 1.5 10.1-2.8 12.9z"/>

        <path class="st2" d="M122.6 199.5l-.3-.5c-.3-.5-.2-1.2.3-1.5l3.1-2c.5-.3 1.2-.2 1.5.3l.3.5c.3.5.2 1.2-.3 1.5l-3.1 2c-.5.3-1.2.2-1.5-.3zM131 203.3c.3.2.7.2 1 0 .4-.3.5-.8.3-1.2l-1.4-2.1c.2-.1 1.1-.1 1.4-.1.3 0 .5-.2.7-.3.3-.2.5-.4.7-.7.2-.4.4-.9.1-1.3-.3-.3-.9-.3-1.2.1 0 0-.2.3-.3.3-.1.1-.5 0-.9 0-.8-.1-1.9-.2-2.3-.1-.4 0-.7.1-1 .3-.1 0-.1 0-.2.1l-3.2 2c-.3.2-.4.6-.2.9l2.4 3.8c.2.4.8.5 1.1.2.2-.1.3-.2.3-.4.3.2.6.2.9 0 .2-.1.3-.3.3-.5.3.2.6.2.9 0 .5-.3.6-.7.6-1z"/>
      </g>

      <g>
        <ellipse transform="rotate(-6.174 56.796 32.948)" class="st18" cx="56.8" cy="32.9" rx="15" ry="15"/>

        <path class="st2" d="M65.2 29c-2.6-2-5.4-.5-6.4.2 0-1.2-.3-4.4-3.5-5.4-4.6-1.5-7.9 3.5-6.1 9.3 1.8 5.7 3.5 7.6 3.5 7.6s2.5.3 8.2-1.4c5.9-1.8 8.1-7.4 4.3-10.3z"/>
      </g>

      <g>
        <path class="st18 float heart" d="M49.5 159.3c3.8-5.1 2.8-12.3-2.3-16.2-5.1-3.8-12.3-2.8-16.2 2.3-3.8 5.1-2.8 12.3 2.3 16.2 5.2 3.9 12.4 2.8 16.2-2.3z"/>

        <path class="st2 heart" d="M47.2 150.4c-1.8-1.8-4-1-4.9-.6.2-.9.3-3.4-2-4.5-3.3-1.7-6.5 1.7-5.7 6.4.7 4.5 1.7 6.2 1.7 6.2s1.8.5 6.4-.1c4.6-.7 7-4.7 4.5-7.4z"/>
      </g>

      <g>
        <path class="st18" d="M149.8 144.6c1.9-5.2-.7-11.1-6-13-5.2-1.9-11.1.7-13 6-1.9 5.2.7 11.1 6 13 5.3 2 11.1-.7 13-6z"/>

        <path class="st2" d="M145.6 137.7c-1.9-1.1-3.7.1-4.3.7-.1-.8-.6-2.9-2.8-3.3-3.2-.6-5 3.1-3.2 6.8 1.7 3.7 3 4.7 3 4.7s1.7 0 5.4-1.6c3.7-1.7 4.7-5.6 1.9-7.3z"/>
      </g>

      <g>
        <path class="st18 floating-heart" d="M86.5 229.1c2.7-3.5 2.1-8.4-1.1-10.9-3.3-2.5-8.1-1.6-10.8 1.9-2.7 3.5-2.1 8.4 1.1 10.9 3.3 2.5 8.2 1.6 10.8-1.9z"/>

        <path class="st2 floating-heart" d="M85.2 223.1c-1.1-1.2-2.7-.6-3.2-.3.1-.6.3-2.3-1.2-3-2.1-1.1-4.3 1.3-4 4.4.3 3.1 1 4.1 1 4.1s1.2.3 4.2-.2c3.1-.5 4.8-3.2 3.2-5z"/>
      </g>

      <g>
        <path fill="#f98cf6" d="M172.4 6.5v.1l-.1-.1v.1h-.1v.1l-.1-.1v.1h-.2v.1-.1.1h-.2v.1-.1.1h-.2V7l-.1-.1V7h-.1v.1l-.1-.1v.1h-.1v.1l-.1-.1v.1l-.1-.1v.1h-.1v.1-.1.1h-.2v.1-.1.1l-.1-.1v.1h-.1v.1l-.1-.1v.1h-.1v.1l-.1-.1v.1l-.1-.1v.1h-.1v.1l-.1-.1v.1h-.1v.1-.1.1l-.1-.1v.1h-.1v.1l-.1-.1v.1h-.1V8l-.1-.1V8l-.1-.1V8h-.1v.1l-.1-.1v.1h-.1v.1l-.1-.1v.1-.1.1h-.1v.1l-.1-.1v.1h-.1v.1l-.1-.1v.1h-.2v.1l-.1-.1v.1h-.1v.1l-.1-.1v.1h-.2v.1-.1.1h-.1v.1l-.1-.1v.1h-.2v.1l-.1-.1v.1h-.1V9l-.1-.1V9h-.1v.1l-.1-.1v.1V9v.1h-.2v.1-.1.1h-.2v.1-.1.1l-.1-.1v.1h-.1v.1l-.1-.1v.1h-.1v.1l-.1-.1v.1-.1.1h-.2v.1-.1.1h-.2v.1-.1.1l-.1-.1v.1h-.1v.1l-.1-.1v.1h-.1v.1l-.1-.1v.1-.1.1h-.2v.1-.1.1h-.2v.1-.1.1h-.2v.1l-.1-.1v.1h-.1v93.7l29.3 16.9 95.3-47.2z"/>

        <path fill="#ef57ff" d="M193.4 120.8l81.5 47 5.6 19.1v-.3.3-.3l.1.2v-.2l.1.2v-.2.2-.3l.1.2v-.2l.1.2v-.2.2-.3l.1.3v-.3l.1.2v-.2.2-.2l.1.2v-.3l.1.2v-.2.2-.2l.1.2v-.3.3-.3l.1.2v-.2l.1.2v-.2.2-.3l.1.2v-.2l.1.2v-.2.2-.3l.1.3v-.3l.1.2v-.2.2-.2l.1.2v-.3l.1.2v-.2.2-.2l.1.2v-.3l.1.3v-.3.2-.2l.1.2v-.3.3-.3l.1.2v-.2l.1.2v-.2.2-.3l.1.3v-.3l.1.2v-.2.2-.3l.1.3v-.3l.1.2v-.2.2-.2l.1.2v-.3l.1.3v-.3.2-.2l.1.2v-.3l.1.3v-.3.2-.2l.1.2v-.2.2-.3l.1.3v-.3l.1.2v-.2.2-.3l.1.3v-.3l.1.2v-.2.2-.2l.1.2v-.3l.1.2v-.2.2-.2l.1.2v-.3l.1.3v-.3.2-.2l.1.2v-.2l.1.2v-.3.2-.2l.1.2v-.2.2-.3l.1.3v-.3l.1.2v-.2.2-.2l.1.2v-.3l.1.2v-.2.2-.2l.1.2v-.3l.1.3v-.3.2-.2l.1.2v-.2l.1.2v-.3.2-.2l.1.2v-.2l.1.2v-.3.3-.3l.1.2v-.2l.1.2v-.2.2-.3l.1.2v-.2.2-.2l.1.2v-.3l.1.3v-.3.2-.2l.1.2v-.3l.1.3v-.3.2-.2l.1.2v-.2l.1.2v-.3.3-.3l.1.2v-.2l.1.2v-.3.3-.3l.1.2v-.2l.1.2v-.2.2-.3l.1.3v-.3.2-.2l.1.2v-.3l.1.3v-.3.2-.2l.1.2v-.2l.1.2v-.3.3-.3l.1.2v-.2l.1.2v-.3.3-.3l.1.2v-.2l.1.2v-.2.2-.3l.1.3v-.3l.1.2v-.2.2-.3l.1.3v-.3.2-.2l.1.2v-.2l.1.2v-.3.2-.2l.1.2v-.2l.1.2v-.3.3-.3l.1.2V73.6z"/>

        <path class="st30" d="M280.4 186.9l-5.6-19.1-110.7-63.9V10.2l116.3 67.2z"/>

        <path class="st2" d="M277.2 166l-110.4-63.7V15l110.8 63.9v87.4z"/>
      </g>

      <g>
        <ellipse transform="rotate(-30 184.765 45.39)" class="st38" cx="184.8" cy="45.4" rx="10.6" ry="18.4"/>

        <ellipse transform="rotate(-30 184.763 43.847)" class="st17" cx="184.8" cy="43.8" rx="4.9" ry="8.5"/>

        <path class="st17" d="M184.8 60.4c2.8 1.6 5.4 2.1 7.6 1.5-1.7-3.7-4.5-7.1-7.6-8.9-3.1-1.8-5.9-1.6-7.6.1 2.1 3.1 4.7 5.7 7.6 7.3z"/>

        <g>
          <path class="st1" d="M199.3 41.7c0 3.5-2.5 5-5.5 3.2-3.1-1.8-5.5-6.1-5.5-9.6s2.5-5 5.5-3.2c3 1.8 5.5 6.1 5.5 9.6z"/>

          <path class="st2" d="M197.2 40.4l-3.3-1.9v-3.9l-.2-.1v3.8l-3.4-1.9v.2l3.4 2v3.8l.2.2v-3.9l3.3 1.9z"/>
        </g>
      </g>

      <path class="st31" d="M262.9 89l-56.1-32.4v-9L262.9 80zM273.9 108.2l-67.1-38.8v-7.5l67.1 38.8z"/>

      <g>
        <ellipse transform="rotate(-30 202 98.27)" class="st1" cx="202" cy="98.3" rx="8.5" ry="14.7"/>

        <path class="st2" d="M201.1 105.8L196 94.7l1.6-.4 3.3 7.3 5.8-8 1.7 2.1z"/>

        <g>
          <path class="st18" d="M252.9 127.5c0 6.7-4.6 9.4-10.4 6.1-5.8-3.3-10.4-11.4-10.5-18 0-6.7 4.6-9.4 10.4-6.1 5.8 3.2 10.5 11.3 10.5 18z"/>

          <path class="st2" d="M248.3 131.1l-4.5-8.9 4.5-3.6-1.5-2.3-4.3 3.4-4.4-8.4-1.4.6 4.5 8.9-4.5 3.6 1.5 2.3 4.3-3.4 4.3 8.4z"/>
        </g>
      </g>

      <path opacity=".2" fill="gray" d="M243.3 368.4l65.8-39.5-10.7-7.3 26.6-15.1 104.1 57.2-95.5 58.9z"/>

      <g>
        <path class="st1" d="M297.2 291.3c-.4 1-3.9 2.5-5.2 3.2-4.4 2.5-8.7 5-13.1 7.6-10.7 6.2-41.9 24-41.9 24l.1 11.8s3.6 2.1 5.1 2.9c3.6 2.1 7.2 4.1 10.7 6.2 10.2 5.9 20.5 11.8 30.7 17.7 17.2 10 35.4 20.5 52.6 30.5 0-22.7-.9-46.1-.9-68.8v-43.1c0-3.8.4-7.9 0-11.8-.3-2.4-.1-2-2.5-.6-11.9 6.9-23.7 13.6-35.6 20.4z"/>

        <path class="st38" d="M313.4 254.5v-11.4s-7.8 4.6-11.8 6.9c2.5 1.5 9.7 7 9.7 7l2.1-2.5z"/>

        <path class="st1" d="M312.2 256.4l-10.7-6.3s-.3.1-2.8 1.5c-7.4 4.3-25.2 14.4-25.2 14.4l-.1 11.2 23.7 14s4.5-2.6 5.8-3.3c4.3-2.4 8.6-4.9 12.8-7.3 6.5-3.7 13-7.4 19.4-11-7.5-4.3-22.9-13.2-22.9-13.2z"/>
        <path class="st38" d="M434.4 326.8s-94.8-54.6-99-57v63.9c0 14.2.9 49.8.9 49.8v11.6l98.1-56.6v-11.7z"/>
      </g>

      <g>
        <path class="st2" d="M240.2 326.1l96 55.5 13.7-8-96-55.4z"/>

        <path class="st16" d="M306.5 252.9l7-9.9-39.9 23.1 33.7 19.5-70.4 40.6 99.3 57.3 98.2-56.7-127.9-73.9zm29.7 128.7l-96-55.4 13.7-7.9 96 55.4-13.7 7.9zm15.4-8.9l-96-55.4 52-30 96 55.4-52 30z"/>
      </g>

      <path class="st2" d="M308 271.4c-.2-.8.1-1.5.7-2.1l1.1-.9c2.1-1.8 1.8-4.2-.6-5.8.1 0 .1-.1.2-.1.5-.4.1-1.1-.8-1.4-.9-.4-2.1-.3-2.6.1-.1 0-.1.1-.1.1-1.2-.2-2.6-.3-3.9-.2-2.2.2-4.1.9-5.3 2l-1.2 1.1c-.6.5-1.8.9-3 1.1-1.2.3-1.6.4-2.4 1-.8.7-.4 1.4.4 1.8-.5.7.1 1.6 1.4 2.1 1.3.5 2.8.5 3.8 0l6.8 2.6c.8.3 3.4 1.3 4.9 0 .6-.4.8-.7.6-1.4zm-1.4-10c.3-.3 1.1-.3 1.7 0 .6.2.9.7.6.9h-.1l-.6-.3c-.5-.2-1.1-.4-1.6-.6-.1.1-.1 0 0 0zm-14.4 8.7c-1-.4-1.5-1-1.3-1.6.4.2.8.4 1.1.5l3.1 1.2c-.7.3-1.9.2-2.9-.1zm10.7 2.6l-6.7-2.6-3.8-1.5c-.5-.2-1-.4-1.3-.6l-.2-.1c-.7-.5-.8-.9-.3-1.4.7-.6.9-.6 2.2-.9 1.2-.3 2.6-.7 3.2-1.2l1.2-1.1c1.1-1 2.9-1.6 4.9-1.8 1.9-.2 3.7.1 5.3.7.1.1.3.1.4.2 3.1 1.3 3.7 3.9 1.5 5.8l-1.1.9c-.7.6-1 1.4-.8 2.3.1.7 0 .9-.6 1.4-.7.7-1.9.7-3.9-.1z"/>

      <g>
        <ellipse class="st18" cx="312.6" cy="266.6" rx="6" ry="3.4"/>

        <text transform="matrix(.866 .5 -.866 .5 307.555 266.157)" class="st13 st19" font-size="6.489">
          12
        </text>

      </g>

      <path class="st1" d="M382 310.5l-56.8-32.8 6.6-3.8 56.8 32.8zM396.3 330.2l-81-46.8 5.9-3.4 80.9 46.8z"/>

      <path class="st2" d="M403.6 342.6l-96-55.4-52 30.1 96 55.4z"/>

      <g>
        <defs>
          <path id="SVGID_3_" d="M403.6 342.6l-96-55.4-52 30.1 96 55.4z"/>
        </defs>

        <clipPath id="SVGID_4_">
          <use xlink:href="#SVGID_3_" overflow="visible"/>
        </clipPath>

        <g clip-path="url(#SVGID_4_)">
          <path class="st16" d="M376 343.7l-49.8-4.7v-14.9l-68.3-8.7-.2.5 67.7 8.6v22.7h.8v-7.7l49.1 4.6 2.3 14.2.8-.1zM304.8 307.3c2.4 1.4 6.4 1.4 8.8 0 2.4-1.4 2.4-3.7 0-5.1-2.4-1.4-6.4-1.4-8.8 0s-2.5 3.7 0 5.1zm8.2-4.8c2.1 1.2 2.1 3.2 0 4.4s-5.6 1.2-7.7 0-2.1-3.2 0-4.4c2.1-1.2 5.6-1.2 7.7 0z"/>
        </g>
      </g>

      <path class="st1" d="M338.3 375.5l-49.9-28.8 5.7-3.3 49.8 28.8zM334.6 378.2l-89.4-51.6 1.8-1.1 89.4 51.7z"/>

      <g>
        <path class="st17" d="M273.3 334.6c1.9-1.2 1.8-3-.2-4.1-2-1.1-5.2-1-7 .1-1.9 1.2-1.8 3 .2 4.1 2 1.1 5.1 1.1 7-.1z"/>

        <path class="st9" d="M267.6 330.8c-.2.1-.3.1-.4.2-1.4.8-1.3 2.2.3 3 1.5.8 3.9.8 5.2-.1.2-.1.3-.2.4-.3-.6-.6-1.4-1.1-2.3-1.6-1-.5-2.1-.9-3.2-1.2z"/>

        <path class="st18" d="M270.8 334.6c-.2-.6-.7-1.1-1.5-1.5-.9-.5-1.9-.7-3-.8-.1.6.3 1.3 1.2 1.8.9.4 2.1.6 3.3.5z"/>

        <path class="st9" d="M273.4 333.1l-1.1-1v-.1h.2l1.4.3c.1 0 .1.1.1.1s-.1.1-.2.1l-1-.2.8.7v.1c-.1.1-.1.1-.2 0zM268.6 330.5c-.1 0-.1-.1 0-.1 0 0 .1-.1.2 0l1.3.4-.4-.5s0-.1.1-.1h.2l.6.8v.1h-.2l-1.8-.6z"/>
      </g>

      <g>
        <path class="st18" d="M265.5 330.2c1.9-1.1 1.9-2.9 0-4s-5-1.1-6.9 0c-1.9 1.1-1.9 2.9 0 4s5 1.1 6.9 0z"/>

        <path class="st2" d="M265 328c-.6-.5-1.6-.4-2-.3.1-.2.3-.8-.6-1.2-1.3-.5-2.8.2-2.8 1.3s.4 1.5.4 1.5.7.2 2.7.2c2 .1 3.2-.8 2.3-1.5z"/>
      </g>

      <g>
        <path class="st1" d="M257.6 325.9c-2 1.1-5.2 1-7-.2-1.8-1.2-1.7-3 .4-4 2-1.1 5.2-1 7 .2 1.8 1.1 1.7 2.9-.4 4z"/>

        <path class="st2" d="M251.3 323.8c-.3-.2-.2-.4.1-.6l1.2-.6c.3-.2.8-.1 1 0 .3.2.2.4-.1.6l-1.2.6c-.3.2-.8.2-1 0zM256.1 324.6h.5c.2-.1.2-.3 0-.4l-.9-.6c.1 0 .5-.1.7-.1.1 0 .3-.1.4-.1.1-.1.2-.2.3-.2.1-.1.2-.3-.1-.4-.2-.1-.5-.1-.6.1l-.1.1h-.5c-.4 0-1 0-1.2.1-.2 0-.4.1-.5.1h-.1l-1.5.8c-.1.1-.1.2 0 .3l1.6 1c.2.1.4.1.6 0 .1 0 .1-.1.1-.1h.5c.1 0 .1-.1.1-.2.2 0 .4 0 .5-.1.2 0 .3-.2.2-.3z"/>
      </g>

      <g>
        <path class="st27" d="M288.9 343.7c1.9-1.1 1.8-2.9-.1-4s-5.1-1.1-7 .1c-1.9 1.1-1.8 2.9.1 4 2 1 5.1 1 7-.1z"/>

        <path class="st9" d="M282.1 342.5c-.1 0-.1-.1 0-.1.1-.1.2-.1.3 0 .8.3 1.5.6 2 1.1.1.1 0 .1-.1.2h-.3c-.5-.6-1.1-.9-1.9-1.2 0 .1 0 0 0 0zM283.9 341.9c-.5-.5-.8-.9-.9-1.5 0 0-.1-.1-.2-.1s-.1.1-.1.1c0 .2.1.4.2.5h-.3c-.3.1-.4.3-.2.5s.5.2.8.1h.1l.3.3.1.1s.1.1.2 0c.1.1.1 0 0 0zM285 342.5c.8.3 1.6.4 2.6.5.1 0 .1 0 .1.1 0 0-.1.1-.2.1-.3 0-.6 0-.9-.1 0 .1 0 .1-.1.2-.2.2-.5.2-.8.1s-.4-.3-.2-.5l.1-.1c-.2 0-.3-.1-.5-.1-.1 0-.1 0-.2-.1-.1 0-.1-.1-.1-.1h.2z"/>
      </g>

      <g>
        <path class="st17" d="M281 339c1.8-1.2 1.7-3-.4-4-2-1.1-5.2-1-7 .2-1.8 1.2-1.7 3 .4 4 2 1 5.2.9 7-.2z"/>

        <path class="st1" d="M277.2 340.3c-.2.1-.8.3-1.3 0-.5-.2-.3-.6-.1-.7.6-.4 2.1-.6 2.1-.6s-.1.9-.7 1.3z"/>

        <path class="st9" d="M276.3 338.7c-.1 0-.1 0 0 0-.2-.3-.4-.5-.7-.6l-.9-.3c-.1 0-.2-.1-.1-.1 0-.1.1-.1.3-.1.4.1.7.2 1 .3.3.2.6.4.7.7 0 .1 0 .1-.1.1h-.2zM279.5 338.2c-.3.2-.7.2-.9.1-.2-.1-.2-.4.1-.6.3-.2.7-.2.9-.1.2.2.2.4-.1.6zM280.3 338c-.1 0-.1-.1 0 0 0-.3-.2-.5-.4-.6 0 0-.1 0-.1-.1-.1 0-.1-.1 0-.1 0 0 .1-.1.2 0 .1 0 .1 0 .2.1.3.2.5.4.5.7h-.4zM275.1 335.9c-.3.2-.3.4-.1.6.2.1.7.1.9-.1.3-.2.3-.4.1-.6s-.6-.1-.9.1zM275.4 335.5c0-.1-.1-.1 0 0-.1-.1 0-.1.1-.2.5 0 .9 0 1.2.2.1 0 .1.1.2.1s0 .1 0 .1h-.2s-.1 0-.1-.1c-.3-.1-.6-.2-1-.1h-.2z"/>
      </g>
    </g>
  </switch>
</svg>
