<?xml version="1.0" encoding="utf-8"?>
<!-- Generator: Adobe Illustrator 22.1.0, SVG Export Plug-In . SVG Version: 6.00 Build 0)  -->
<svg version="1.1" id="Layer_1" xmlns="http://www.w3.org/2000/svg" xmlns:xlink="http://www.w3.org/1999/xlink" x="0px" y="0px"
	 viewBox="0 0 1300 1300" style="enable-background:new 0 0 1300 1300;" xml:space="preserve">
<style type="text/css">
	.st0{fill:#58595B;}
	.st1{fill:#F8028A;}
</style>
<g>
	<path class="st0" d="M118.9,104C10.8,209.6,8.8,382.6,114.3,490.7l111.9,114.7l391.4-382.1l-112-114.7C400.1,0.6,227-1.5,118.9,104
		z"/>
	<path class="st0" d="M1067.9,684.6l-391.4,382l120.3,123.2c105.5,108.1,278.6,110.1,386.7,4.6c54.9-53.6,82.4-124.6,82.4-195.7
		c0-68.8-25.9-137.8-77.8-191L1067.9,684.6z"/>
	<path class="st1" d="M818,104L118.9,786.5C10.8,892,8.8,1065.1,114.3,1173.2c53.6,54.9,124.6,82.4,195.7,82.4
		c68.8,0,137.8-25.9,191-77.8l699.1-682.5c108-105.5,110.1-278.6,4.6-386.7C1099.1,0.6,926.1-1.4,818,104z M854.8,225.9
		c19.1,0,34.6,15.5,34.6,34.6c0,19.1-15.6,34.6-34.6,34.6c-19.1,0-34.6-15.5-34.6-34.6C820.2,241.4,835.7,225.9,854.8,225.9z
		 M184.4,1123.2c-19-1.6-33.2-18.3-31.6-37.4c1.7-19.1,18.3-33.2,37.4-31.6c19,1.6,33.2,18.4,31.6,37.4
		C220.2,1110.6,203.4,1124.8,184.4,1123.2z M228.2,1015.3c-19-1.6-33.1-18.4-31.6-37.4c1.6-19,18.4-33.2,37.4-31.6
		c19,1.6,33.2,18.4,31.6,37.4C264,1002.7,247.3,1016.9,228.2,1015.3z M251.4,892.7c-19.1-1.6-33.2-18.3-31.6-37.4
		c1.6-19,18.4-33.2,37.3-31.6c19.1,1.6,33.2,18.4,31.6,37.4C287.2,880.1,270.4,894.3,251.4,892.7z M315.3,1112.4
		c-19-1.6-33.2-18.4-31.6-37.4c1.6-19,18.3-33.2,37.4-31.6c19,1.6,33.2,18.4,31.6,37.4C351.1,1099.8,334.4,1114,315.3,1112.4z
		 M338.5,989.8c-19.1-1.6-33.2-18.3-31.6-37.4c1.6-19,18.3-33.2,37.4-31.6c19.1,1.6,33.2,18.4,31.6,37.4
		C374.3,977.3,357.5,991.4,338.5,989.8z M422.6,1089.5c-19-1.6-33.2-18.4-31.6-37.4c1.6-19,18.3-33.2,37.4-31.5
		c19,1.6,33.2,18.3,31.5,37.3C458.4,1076.9,441.7,1091.1,422.6,1089.5z M852.5,698.1L712.7,827.4c-68.2,63.1-174.7,58.9-237.8-9.3
		l-5.1-5.5c-63.1-68.3-60.2-176.1,6.5-240.9l137.3-133.6c66.7-64.8,171.7-61.8,234.6,6.5l14,15.3C925,528.4,920.8,635,852.5,698.1z
		 M944.3,390c-19.1,0-34.6-15.5-34.6-34.6c0-19.1,15.5-34.6,34.6-34.6c19.1,0,34.6,15.5,34.6,34.6C979,374.5,963.4,390,944.3,390z
		 M944.3,247.6c0-19.1,15.5-34.6,34.6-34.6c19.1,0,34.6,15.5,34.6,34.6c0,19.1-15.5,34.6-34.6,34.6
		C959.8,282.3,944.3,266.8,944.3,247.6z M1036.5,482.3c-19.1,0-34.6-15.5-34.6-34.6c0-19.1,15.5-34.6,34.6-34.6
		c19.1,0,34.6,15.5,34.6,34.6C1071.2,466.7,1055.7,482.3,1036.5,482.3z M1068.4,377.2c-19.1,0-34.6-15.5-34.6-34.6
		c0-19.1,15.5-34.6,34.6-34.6c19.1,0,34.6,15.5,34.6,34.6C1103.1,361.7,1087.5,377.2,1068.4,377.2z M1090.2,247.6
		c-19.1,0-34.6-15.5-34.6-34.6c0-19.1,15.5-34.6,34.6-34.6c19.1,0,34.6,15.5,34.6,34.6C1124.8,232.2,1109.3,247.6,1090.2,247.6z"/>
</g>
</svg>
